<svg width="17" height="17" viewBox="0 0 17 17" fill="none" xmlns="http://www.w3.org/2000/svg">
<g clip-path="url(#clip0_391_5257)">
<path d="M16.25 8.5C16.25 12.9182 12.6682 16.5 8.25 16.5C3.83222 16.5 0.25 12.9182 0.25 8.5C0.25 4.08222 3.83222 0.5 8.25 0.5C12.6682 0.5 16.25 4.08222 16.25 8.5Z" fill="#B3E8D9"/>
<path d="M4.9234 10.8443C4.9434 10.9239 5.44251 12.7906 8.25007 12.7906C11.0581 12.7906 11.5567 10.9239 11.5767 10.8443C11.5884 10.7974 11.5844 10.748 11.5654 10.7035C11.5464 10.6591 11.5134 10.6221 11.4714 10.5981C11.4292 10.5743 11.3804 10.5647 11.3324 10.5709C11.2843 10.577 11.2395 10.5986 11.2047 10.6323C11.1963 10.6408 10.3363 11.4572 8.25007 11.4572C6.16384 11.4572 5.3034 10.6408 5.2954 10.6328C5.26099 10.5988 5.21646 10.5769 5.16852 10.5704C5.12059 10.5639 5.07184 10.5731 5.02962 10.5968C4.98725 10.6207 4.95391 10.6579 4.93472 10.7026C4.91553 10.7473 4.91156 10.7971 4.9234 10.8443V10.8443Z" fill="#2F3941"/>
<path d="M5.58327 7.90115C6.19692 7.90115 6.69438 7.2047 6.69438 6.34559C6.69438 5.48649 6.19692 4.79004 5.58327 4.79004C4.96962 4.79004 4.47216 5.48649 4.47216 6.34559C4.47216 7.2047 4.96962 7.90115 5.58327 7.90115Z" fill="#2F3941"/>
<path d="M10.9166 7.90115C11.5302 7.90115 12.0277 7.2047 12.0277 6.34559C12.0277 5.48649 11.5302 4.79004 10.9166 4.79004C10.3029 4.79004 9.80544 5.48649 9.80544 6.34559C9.80544 7.2047 10.3029 7.90115 10.9166 7.90115Z" fill="#2F3941"/>
</g>
<defs>
<clipPath id="clip0_391_5257">
<rect width="16" height="16" fill="white" transform="translate(0.25 0.5)"/>
</clipPath>
</defs>
</svg>
