<svg width="17" height="17" viewBox="0 0 17 17" fill="none" xmlns="http://www.w3.org/2000/svg">
<g clip-path="url(#clip0_391_5247)">
<path d="M16.25 8.5C16.25 12.9182 12.6682 16.5 8.25 16.5C3.83222 16.5 0.25 12.9182 0.25 8.5C0.25 4.08222 3.83222 0.5 8.25 0.5C12.6682 0.5 16.25 4.08222 16.25 8.5Z" fill="#F2C1C3"/>
<path d="M11.577 13.779C11.557 13.6995 11.0579 11.8328 8.25034 11.8328C5.44234 11.8328 4.94367 13.6995 4.92367 13.779C4.91199 13.8259 4.91596 13.8754 4.93498 13.9198C4.95399 13.9643 4.98701 14.0013 5.029 14.0252C5.07123 14.0489 5.11997 14.0584 5.168 14.0523C5.21603 14.0461 5.2608 14.0246 5.29567 13.991C5.30412 13.9826 6.16412 13.1661 8.25034 13.1661C10.3366 13.1661 11.197 13.9826 11.205 13.9906C11.2394 14.0246 11.2839 14.0465 11.3319 14.053C11.3798 14.0595 11.4286 14.0502 11.4708 14.0266C11.5132 14.0026 11.5465 13.9654 11.5657 13.9207C11.5849 13.876 11.5888 13.8262 11.577 13.779V13.779ZM7.23123 8.18524C5.78456 6.73857 3.45967 6.72168 3.36145 6.72168C3.24701 6.72674 3.13894 6.77575 3.05973 6.8585C2.98051 6.94125 2.93628 7.05136 2.93622 7.16591C2.93616 7.28046 2.98029 7.39062 3.05942 7.47345C3.13854 7.55628 3.24657 7.60539 3.361 7.61057C3.37389 7.61057 4.21656 7.62035 5.13123 7.93812C4.86767 8.22257 4.69478 8.66435 4.69478 9.16612C4.69478 10.0257 5.19212 10.7217 5.80589 10.7217C6.41967 10.7217 6.917 10.0257 6.917 9.16612C6.917 9.08879 6.90856 9.01501 6.90056 8.94079C6.90634 8.94079 6.91167 8.9439 6.917 8.9439C7.00499 8.9441 7.09105 8.91815 7.16426 8.86934C7.23747 8.82054 7.29453 8.75109 7.32819 8.6698C7.36186 8.58851 7.37062 8.49906 7.35335 8.41278C7.33609 8.32651 7.29358 8.24731 7.23123 8.18524V8.18524ZM13.1392 6.72168C13.041 6.72168 10.7166 6.73857 9.26945 8.18524C9.20709 8.24731 9.16459 8.32651 9.14732 8.41278C9.13006 8.49906 9.13882 8.58851 9.17248 8.6698C9.20615 8.75109 9.26321 8.82054 9.33642 8.86934C9.40963 8.91815 9.49569 8.9441 9.58367 8.9439C9.58945 8.9439 9.59434 8.94079 9.59967 8.94079C9.59256 9.01501 9.58367 9.08879 9.58367 9.16612C9.58367 10.0257 10.081 10.7217 10.6948 10.7217C11.3086 10.7217 11.8059 10.0257 11.8059 9.16612C11.8059 8.66435 11.633 8.22257 11.3694 7.93812C11.9406 7.74322 12.5371 7.63286 13.1401 7.61057C13.1985 7.61051 13.2563 7.59896 13.3102 7.57657C13.3641 7.55418 13.413 7.52139 13.4543 7.48008C13.4955 7.43877 13.5282 7.38974 13.5505 7.3358C13.5727 7.28185 13.5842 7.22404 13.5841 7.16568C13.5841 7.10731 13.5725 7.04953 13.5501 6.99563C13.5277 6.94173 13.4949 6.89277 13.4536 6.85154C13.4123 6.81031 13.3633 6.77762 13.3093 6.75534C13.2554 6.73306 13.1976 6.72162 13.1392 6.72168V6.72168Z" fill="#2F3941"/>
</g>
<defs>
<clipPath id="clip0_391_5247">
<rect width="16" height="16" fill="white" transform="translate(0.25 0.5)"/>
</clipPath>
</defs>
</svg>
