<svg width="16" height="17" viewBox="0 0 16 17" fill="none" xmlns="http://www.w3.org/2000/svg">
<g clip-path="url(#clip0_391_5262)">
<path d="M16 8.5C16 12.9182 12.4182 16.5 8 16.5C3.58222 16.5 0 12.9182 0 8.5C0 4.08222 3.58222 0.5 8 0.5C12.4182 0.5 16 4.08222 16 8.5Z" fill="#66D1B3"/>
<path d="M4.6734 10.8443C4.6934 10.9239 5.19251 12.7906 8.00007 12.7906C10.8081 12.7906 11.3067 10.9239 11.3267 10.8443C11.3384 10.7974 11.3344 10.748 11.3154 10.7035C11.2964 10.6591 11.2634 10.6221 11.2214 10.5981C11.1792 10.5743 11.1304 10.5647 11.0824 10.5709C11.0343 10.577 10.9895 10.5986 10.9547 10.6323C10.9463 10.6408 10.0863 11.4572 8.00007 11.4572C5.91384 11.4572 5.0534 10.6408 5.0454 10.6328C5.01099 10.5988 4.96646 10.5769 4.91852 10.5704C4.87059 10.5639 4.82184 10.5731 4.77962 10.5968C4.73725 10.6207 4.70391 10.6579 4.68472 10.7026C4.66553 10.7473 4.66156 10.7971 4.6734 10.8443V10.8443Z" fill="#2F3941"/>
<path d="M5.33328 7.90115C5.94693 7.90115 6.44439 7.2047 6.44439 6.34559C6.44439 5.48649 5.94693 4.79004 5.33328 4.79004C4.71963 4.79004 4.22217 5.48649 4.22217 6.34559C4.22217 7.2047 4.71963 7.90115 5.33328 7.90115Z" fill="#2F3941"/>
<path d="M10.6666 7.90115C11.2802 7.90115 11.7777 7.2047 11.7777 6.34559C11.7777 5.48649 11.2802 4.79004 10.6666 4.79004C10.0529 4.79004 9.55545 5.48649 9.55545 6.34559C9.55545 7.2047 10.0529 7.90115 10.6666 7.90115Z" fill="#2F3941"/>
</g>
<defs>
<clipPath id="clip0_391_5262">
<rect width="16" height="16" fill="white" transform="translate(0 0.5)"/>
</clipPath>
</defs>
</svg>
