<svg width="17" height="17" viewBox="0 0 17 17" fill="none" xmlns="http://www.w3.org/2000/svg">
<g clip-path="url(#clip0_391_5241)">
<path d="M16.5 8.5C16.5 12.9182 12.9182 16.5 8.5 16.5C4.08222 16.5 0.5 12.9182 0.5 8.5C0.5 4.08222 4.08222 0.5 8.5 0.5C12.9182 0.5 16.5 4.08222 16.5 8.5Z" fill="#E9979B"/>
<path d="M11.827 13.779C11.807 13.6995 11.3079 11.8328 8.50034 11.8328C5.69234 11.8328 5.19367 13.6995 5.17367 13.779C5.16199 13.8259 5.16596 13.8754 5.18498 13.9198C5.20399 13.9643 5.23701 14.0013 5.279 14.0252C5.32123 14.0489 5.36997 14.0584 5.418 14.0523C5.46603 14.0461 5.5108 14.0246 5.54567 13.991C5.55412 13.9826 6.41412 13.1661 8.50034 13.1661C10.5866 13.1661 11.447 13.9826 11.455 13.9906C11.4894 14.0246 11.5339 14.0465 11.5819 14.053C11.6298 14.0595 11.6786 14.0502 11.7208 14.0266C11.7632 14.0026 11.7965 13.9654 11.8157 13.9207C11.8349 13.876 11.8388 13.8262 11.827 13.779V13.779ZM7.48123 8.18524C6.03456 6.73857 3.70967 6.72168 3.61145 6.72168C3.49701 6.72674 3.38894 6.77575 3.30973 6.8585C3.23051 6.94125 3.18628 7.05136 3.18622 7.16591C3.18616 7.28046 3.23029 7.39062 3.30942 7.47345C3.38854 7.55628 3.49657 7.60539 3.611 7.61057C3.62389 7.61057 4.46656 7.62035 5.38123 7.93812C5.11767 8.22257 4.94478 8.66435 4.94478 9.16612C4.94478 10.0257 5.44212 10.7217 6.05589 10.7217C6.66967 10.7217 7.167 10.0257 7.167 9.16612C7.167 9.08879 7.15856 9.01501 7.15056 8.94079C7.15634 8.94079 7.16167 8.9439 7.167 8.9439C7.25499 8.9441 7.34105 8.91815 7.41426 8.86934C7.48747 8.82054 7.54453 8.75109 7.57819 8.6698C7.61186 8.58851 7.62062 8.49906 7.60335 8.41278C7.58609 8.32651 7.54358 8.24731 7.48123 8.18524V8.18524ZM13.3892 6.72168C13.291 6.72168 10.9666 6.73857 9.51945 8.18524C9.45709 8.24731 9.41459 8.32651 9.39732 8.41278C9.38006 8.49906 9.38882 8.58851 9.42248 8.6698C9.45615 8.75109 9.51321 8.82054 9.58642 8.86934C9.65963 8.91815 9.74569 8.9441 9.83367 8.9439C9.83945 8.9439 9.84434 8.94079 9.84967 8.94079C9.84256 9.01501 9.83367 9.08879 9.83367 9.16612C9.83367 10.0257 10.331 10.7217 10.9448 10.7217C11.5586 10.7217 12.0559 10.0257 12.0559 9.16612C12.0559 8.66435 11.883 8.22257 11.6194 7.93812C12.1906 7.74322 12.7871 7.63286 13.3901 7.61057C13.4485 7.61051 13.5063 7.59896 13.5602 7.57657C13.6141 7.55418 13.663 7.52139 13.7043 7.48008C13.7455 7.43877 13.7782 7.38974 13.8005 7.3358C13.8227 7.28185 13.8342 7.22404 13.8341 7.16568C13.8341 7.10731 13.8225 7.04953 13.8001 6.99563C13.7777 6.94173 13.7449 6.89277 13.7036 6.85154C13.6623 6.81031 13.6133 6.77762 13.5593 6.75534C13.5054 6.73306 13.4476 6.72162 13.3892 6.72168V6.72168Z" fill="#2F3941"/>
</g>
<defs>
<clipPath id="clip0_391_5241">
<rect width="16" height="16" fill="white" transform="translate(0.5 0.5)"/>
</clipPath>
</defs>
</svg>
