<svg width="17" height="17" viewBox="0 0 17 17" fill="none" xmlns="http://www.w3.org/2000/svg">
<g clip-path="url(#clip0_391_5252)">
<path d="M16.5 8.5C16.5 12.9182 12.9182 16.5 8.5 16.5C4.08222 16.5 0.5 12.9182 0.5 8.5C0.5 4.08222 4.08222 0.5 8.5 0.5C12.9182 0.5 16.5 4.08222 16.5 8.5Z" fill="#FFD7A4"/>
<path d="M5.41987 8.97C6.03351 8.97 6.53098 8.27355 6.53098 7.41444C6.53098 6.55533 6.03351 5.85889 5.41987 5.85889C4.80622 5.85889 4.30875 6.55533 4.30875 7.41444C4.30875 8.27355 4.80622 8.97 5.41987 8.97Z" fill="#2F3941"/>
<path d="M11.1976 8.97C11.8113 8.97 12.3087 8.27355 12.3087 7.41444C12.3087 6.55533 11.8113 5.85889 11.1976 5.85889C10.584 5.85889 10.0865 6.55533 10.0865 7.41444C10.0865 8.27355 10.584 8.97 11.1976 8.97Z" fill="#2F3941"/>
<path d="M11.4199 11.6369H5.19768C5.07981 11.6369 4.96676 11.5901 4.88341 11.5068C4.80006 11.4234 4.75323 11.3104 4.75323 11.1925C4.75323 11.0746 4.80006 10.9616 4.88341 10.8782C4.96676 10.7949 5.07981 10.748 5.19768 10.748H11.4199C11.5378 10.748 11.6508 10.7949 11.7342 10.8782C11.8175 10.9616 11.8643 11.0746 11.8643 11.1925C11.8643 11.3104 11.8175 11.4234 11.7342 11.5068C11.6508 11.5901 11.5378 11.6369 11.4199 11.6369Z" fill="#2F3941"/>
</g>
<defs>
<clipPath id="clip0_391_5252">
<rect width="16" height="16" fill="white" transform="translate(0.5 0.5)"/>
</clipPath>
</defs>
</svg>
