<svg width="44" height="39" viewBox="0 0 44 39" fill="none" xmlns="http://www.w3.org/2000/svg">
<g clip-path="url(#clip0_784_4303)">
<rect x="0.5" y="0.5" width="43" height="38" rx="4.5" fill="white"/>
<g clip-path="url(#clip1_784_4303)">
<rect x="13" y="10.0938" width="18" height="18.8125" rx="4.5" fill="white" stroke="white"/>
<g clip-path="url(#clip2_784_4303)">
<ellipse cx="28.0562" cy="21.2813" rx="0.712499" ry="0.7125" fill="white"/>
<path d="M15.3014 11.7812C14.9784 11.7812 14.6686 11.9064 14.4402 12.1291C14.2118 12.3518 14.0835 12.6538 14.0835 12.9688V14.1562C14.0835 14.4712 14.2118 14.7732 14.4402 14.9959C14.6686 15.2186 14.9784 15.3438 15.3014 15.3438H15.9104V26.0312C15.9104 26.6611 16.1671 27.2652 16.6239 27.7106C17.0807 28.156 17.7003 28.4062 18.3463 28.4062H25.654C26.3 28.4062 26.9196 28.156 27.3764 27.7106C27.8333 27.2652 28.0899 26.6611 28.0899 26.0312V15.3438H28.6989C29.0219 15.3438 29.3317 15.2186 29.5601 14.9959C29.7885 14.7732 29.9168 14.4712 29.9168 14.1562V12.9688C29.9168 12.6538 29.7885 12.3518 29.5601 12.1291C29.3317 11.9064 29.0219 11.7812 28.6989 11.7812H24.4361C24.4361 11.4663 24.3077 11.1643 24.0793 10.9416C23.8509 10.7189 23.5411 10.5938 23.2181 10.5938H20.7822C20.4592 10.5938 20.1494 10.7189 19.921 10.9416C19.6926 11.1643 19.5643 11.4663 19.5643 11.7812H15.3014ZM18.9553 16.5312C19.1168 16.5312 19.2717 16.5938 19.3859 16.7052C19.5001 16.8165 19.5643 16.9675 19.5643 17.125V25.4375C19.5643 25.595 19.5001 25.746 19.3859 25.8573C19.2717 25.9687 19.1168 26.0312 18.9553 26.0312C18.7938 26.0312 18.6389 25.9687 18.5247 25.8573C18.4105 25.746 18.3463 25.595 18.3463 25.4375V17.125C18.3463 16.9675 18.4105 16.8165 18.5247 16.7052C18.6389 16.5938 18.7938 16.5312 18.9553 16.5312ZM22.0002 16.5312C22.1617 16.5312 22.3166 16.5938 22.4308 16.7052C22.545 16.8165 22.6091 16.9675 22.6091 17.125V25.4375C22.6091 25.595 22.545 25.746 22.4308 25.8573C22.3166 25.9687 22.1617 26.0312 22.0002 26.0312C21.8387 26.0312 21.6838 25.9687 21.5696 25.8573C21.4553 25.746 21.3912 25.595 21.3912 25.4375V17.125C21.3912 16.9675 21.4553 16.8165 21.5696 16.7052C21.6838 16.5938 21.8387 16.5312 22.0002 16.5312ZM25.654 17.125V25.4375C25.654 25.595 25.5898 25.746 25.4756 25.8573C25.3614 25.9687 25.2065 26.0312 25.045 26.0312C24.8835 26.0312 24.7286 25.9687 24.6144 25.8573C24.5002 25.746 24.4361 25.595 24.4361 25.4375V17.125C24.4361 16.9675 24.5002 16.8165 24.6144 16.7052C24.7286 16.5938 24.8835 16.5312 25.045 16.5312C25.2065 16.5312 25.3614 16.5938 25.4756 16.7052C25.5898 16.8165 25.654 16.9675 25.654 17.125Z" fill="#7100D2"/>
</g>
</g>
<rect x="0.5" y="0.5" width="43" height="38" rx="4.5" stroke="#D8D8D8"/>
</g>
<defs>
<clipPath id="clip0_784_4303">
<rect width="44" height="39" fill="white"/>
</clipPath>
<clipPath id="clip1_784_4303">
<rect width="19" height="19" fill="white" transform="translate(12.5 10)"/>
</clipPath>
<clipPath id="clip2_784_4303">
<rect width="17.8125" height="17.8125" fill="white" transform="translate(13.0938 10.5938)"/>
</clipPath>
</defs>
</svg>
