<svg width="399" height="338" viewBox="0 0 399 338" fill="none" xmlns="http://www.w3.org/2000/svg">
<path d="M356.716 250.094C355.809 250.918 354.902 250.693 353.952 250.182C352.188 249.232 350.629 250.717 348.836 250.745L348.628 249.256L346.341 251.128L346.631 251.266C344.982 251.879 343.338 252.504 341.683 253.101C340.294 253.601 338.893 254.073 337.494 254.549C335.058 255.379 332.637 256.263 330.174 257.003C328.723 257.44 327.203 257.653 325.711 257.948C323.484 258.388 321.237 258.743 319.028 259.262C316.64 259.823 314.285 260.527 311.918 261.18C311.731 261.232 311.479 261.496 311.406 261.448C308.379 259.467 306.368 262.731 303.743 262.988C301.248 263.348 298.787 263.921 296.389 264.701C295.961 264.82 295.697 265.526 295.65 265.588L283.858 269.73C284.12 269.084 284.293 268.657 284.466 268.231C281.923 267.839 276.372 269.974 275.579 271.465C273.545 271.659 271.656 271.892 269.761 272.005C267.833 272.119 266.121 272.953 264.33 273.504C262.435 274.086 260.592 274.837 258.729 275.519C258.607 275.564 258.497 275.715 258.388 275.71C254.932 275.542 252.332 277.729 249.355 278.893C247.433 279.644 245.28 280.826 243.457 280.542C241.468 280.232 240.303 280.949 238.757 281.666C236.911 280.442 235.284 281.833 233.837 282.408C231.678 281.033 229.964 282.62 228.061 282.874C227.92 282.54 227.763 282.168 227.555 281.676L217.823 284.284C217.897 283.765 217.957 283.35 218.097 282.367C209.844 283.856 201.765 285.313 193.658 286.776C194.43 284.83 192.928 284.679 191.41 284.76C190.007 284.835 188.613 285.135 187.17 285.342C186.765 284.25 185.046 284.068 181.473 284.988C181.767 283.581 182.04 282.28 182.313 280.978L182.947 280.189L179.733 278.597L181.788 273.188C180.518 270.979 178.48 271.892 176.656 272.359C170.521 273.93 164.41 275.598 158.291 277.231C156.083 277.82 153.877 278.413 151.51 279.048C153.421 281.691 154.978 283.844 156.456 285.889C153.896 286.011 151.661 286.115 149.426 286.235C149.327 286.24 149.234 286.389 149.138 286.471C147.761 284.308 144.614 285.268 143.158 283.309C142.764 282.779 142.665 282.037 142.25 280.894C137.454 282.032 132.706 283.396 127.869 284.244C122.495 285.185 117.003 285.89 111.743 283.865C110.664 283.33 109.83 282.423 109.401 281.317C107.5 276.501 108.376 271.56 109.462 266.705C110.165 263.563 111.32 260.514 112.188 257.403C112.317 256.942 111.875 256.361 111.894 255.841C111.969 254.976 112.093 254.116 112.265 253.264C112.047 253.234 111.594 253.173 110.809 253.068C111.384 252.457 111.693 251.837 112.155 251.686C115.172 250.708 117.956 248.843 121.385 249.339C122.076 249.438 122.874 248.847 123.631 248.6C124.298 248.382 124.871 247.285 125.713 248.375C125.82 248.514 126.327 248.391 126.64 248.338C133.553 247.168 139.201 243.516 144.618 239.413C144.931 239.22 145.18 238.943 145.334 238.615C140.868 239.811 136.403 241.007 131.937 242.203C123.978 244.322 116.092 246.803 108.036 248.433C101.274 249.801 94.3156 250.272 87.425 248.975C86.8309 248.893 86.2317 248.848 85.6309 248.838C83.2351 248.683 82.1171 247.661 81.3999 245.45C79.9231 240.896 80.6129 236.305 81.2249 231.727C81.4712 229.883 82.467 228.07 82.4268 226.268C82.4 225.061 82.3093 224.23 83.0061 223.085C83.4106 222.42 82.3049 221.009 82.2097 219.902C82.1459 219.158 82.6619 218.36 82.947 217.5L81.5783 217.298C81.6133 217.061 81.5946 216.864 81.6529 216.838C83.5886 215.896 85.5714 215.051 87.5934 214.308C89.1369 213.805 90.8438 213.828 92.4396 213.452C106.086 210.24 119.728 207.007 133.365 203.753C141.172 201.901 148.98 200.053 156.788 198.209C157.24 198.102 157.686 197.971 158.466 197.761C151.075 198.626 144.037 199.464 136.995 200.269C126.912 201.422 116.823 202.519 106.745 203.723C105.232 204.001 103.747 204.419 102.311 204.971C102.097 205.039 101.897 205.409 101.841 205.667C101.626 206.657 101.751 207.789 100.34 208.152C100.204 208.186 100.28 209.047 100.248 209.738C99.4887 209.812 98.7237 209.772 97.98 209.619C94.0129 208.122 89.8774 206.881 86.2134 204.851C83.5547 203.378 80.6573 201.539 80.2075 197.942C80.1689 197.633 79.6612 197.412 79.5011 197.088C78.869 195.808 78.2796 194.507 77.6975 193.203C77.5952 192.974 77.6769 192.653 77.5503 192.448C75.851 189.7 76.9929 187.628 79.3092 185.891C80.8308 184.63 82.466 183.507 84.1943 182.537C86.8997 181.19 87.3449 180.719 87.185 177.466C83.3596 177.986 79.5545 178.648 75.7239 178.995C66.4849 179.833 57.2396 180.623 47.9856 181.226C43.8653 181.531 39.731 181.508 35.6236 181.159C33.1438 180.924 30.7632 179.71 28.3704 178.853C27.0843 178.482 25.8663 177.92 24.7585 177.188C22.713 175.615 21.3059 171.324 22.9973 169.828C24.9437 168.107 23.5304 166.818 23.4803 165.554C23.3492 162.256 24.669 159.75 27.4211 158.303C29.1827 157.376 28.4737 155.897 29.1859 154.795C30.0075 153.342 30.703 151.826 31.2649 150.263C31.5429 149.611 31.7281 148.921 32.1422 147.696C34.0612 147.257 36.263 145.41 39.3272 146.859C40.7017 147.51 42.7333 146.859 44.4669 146.81C44.9214 146.797 45.3764 146.825 45.4557 146.826C46.2457 143.675 47.0798 140.626 47.751 137.545C48.0608 136.123 48.6025 135.259 50.1637 134.824C63.1316 131.21 76.0416 127.383 89.039 123.88C101.201 120.602 112.873 116.211 123.834 109.881C120.606 110.512 117.382 111.162 114.149 111.77C110.133 112.524 106.131 113.113 102.125 111.726C101.179 111.399 99.7061 110.994 100.048 113.169L99.5893 113.479C97.7455 112.144 95.9017 110.809 93.7272 109.235C93.5655 112.1 89.1866 111.25 90.1051 114.662C88.7869 114.241 87.7667 113.508 86.6271 114.852C86.334 115.197 84.4599 114.955 83.1606 114.252C81.4478 113.324 79.0847 113.523 77.0233 113.24C77.5316 112.703 78.1115 112.09 78.6618 111.508C77.2395 111.808 75.9599 112.078 74.6801 112.348C74.5927 112.129 74.5054 111.909 74.4181 111.69L75.5074 110.686C74.1801 110.206 72.8326 109.72 71.4851 109.233L71.3398 109.626C71.8662 109.838 72.3926 110.051 72.5615 110.119C73.5588 111.192 70.9572 112.789 73.5418 113.283C72.1849 113.623 70.8154 114.247 69.7572 113.061C68.4681 113.233 67.1478 113.408 65.8275 113.584L65.5661 113.203C67.0312 111.959 68.4963 110.716 69.9614 109.473L69.6586 108.969C68.8979 109.173 67.9705 109.175 67.409 109.62C65.9493 110.776 64.6744 112.154 63.2692 113.382C62.9401 113.669 62.2377 113.962 61.9685 113.812C61.6918 113.674 61.4474 113.482 61.2501 113.249C61.0529 113.015 60.9069 112.744 60.821 112.452C60.7542 111.725 61.1443 110.953 61.4005 109.964L64.5726 110.926C64.3992 109.907 64.3992 109.907 59.3723 108.436C59.2615 107.673 59.157 106.952 59.0133 105.961C59.7213 106.211 60.4997 106.485 61.5408 106.851C61.5082 106.366 61.6168 105.66 61.426 105.574C60.8352 105.309 59.9976 104.988 59.4946 105.212C57.9237 105.913 56.9772 105.475 56.1682 103.97C56.6191 103.739 57.0339 103.337 57.375 103.386C59.0095 103.582 60.6259 103.892 62.2123 104.312C63.9025 104.8 64.8966 104.339 65.1945 102.928L71.4081 103.315C71.7655 102.931 72.1991 102.621 72.682 102.405C76.9182 101.128 81.1849 99.9513 85.4269 98.6922C86.1697 98.3982 86.8856 98.0417 87.5665 97.6267C86.4188 97.1589 85.6418 96.8422 84.8848 96.5336L83.8783 98.5081L83.398 98.3937C83.3315 97.9968 83.2651 97.5999 83.1899 97.1509C82.4362 97.0582 81.6738 97.0404 80.9143 97.0979C80.3721 97.2738 79.8698 97.5534 79.4371 97.9201C79.2856 98.0187 79.2444 98.31 79.0926 98.3743C77.6047 99.0048 76.1041 99.6059 74.6091 100.213C74.7049 99.3145 74.7992 98.4176 74.8922 97.5224C75.2694 97.6848 75.6467 97.8474 76.0239 98.0099L72.5818 98.9322L72.6199 99.4131C73.2899 99.6742 73.96 99.9354 74.63 100.197C73.771 101.622 72.5132 101.817 71.646 100.659C70.6708 99.3567 69.8122 99.204 68.4745 100.082C68.1982 100.263 67.873 100.579 67.6134 100.546C65.7422 100.297 63.8317 100.69 62.2067 101.659C61.8382 101.868 61.1229 101.484 60.5674 101.373C60.9758 100.905 61.3058 100.163 61.807 100.02C63.4618 99.5496 65.1794 99.3001 66.8712 98.9575C68.1011 98.7085 69.3283 98.4465 70.5568 98.1903C70.524 97.9415 70.4912 97.6928 70.4585 97.444C68.6608 97.7487 66.863 98.0533 64.7055 98.4188L65.8608 96.699C67.4736 97.1462 68.8854 97.4414 70.3579 96.2521C70.9998 95.7337 72.192 95.8682 73.1342 95.7061L73.2874 96.2952C72.55 96.6095 71.8127 96.9237 71.0754 97.2379L71.1328 97.7608C71.8282 97.6043 72.5329 97.48 73.2168 97.2836C74.1406 97.0183 75.0318 96.6126 75.968 96.4258C76.8359 96.3066 77.7103 96.2471 78.585 96.2478C78.5818 96.0644 78.5786 95.8811 78.5754 95.6977L73.8723 95.9029C75.8534 94.1063 79.2538 95.2706 80.638 92.1024C79.1609 92.3844 77.7826 92.5699 76.4484 92.9226C74.9127 93.3285 73.4395 93.9825 71.8967 94.3484C69.5364 94.9081 67.1413 95.322 64.7559 95.77C64.5418 95.8103 64.1295 95.7048 64.0816 95.5709C63.5889 94.194 62.6452 94.6428 61.6579 94.9178C61.0763 95.0527 60.4669 94.9686 59.9521 94.6823C61.7391 94.2034 63.876 92.9011 65.2328 93.4352C67.3662 94.275 68.9952 92.9073 70.8755 93.1959C72.5986 93.4605 74.5675 91.2113 74.4738 89.266C73.7643 89.2848 73.0562 89.3488 72.3539 89.4573C71.7537 89.6294 71.1682 89.849 70.6033 90.1139L70.3913 89.6655C71.9408 88.9505 73.4902 88.2356 75.0396 87.5206L74.9356 87.0649L70.5969 88.2274L70.7493 87.8772C70.2043 87.7805 69.6593 87.6839 68.5883 87.494L71.255 86.7794L71.2341 86.354C70.3565 86.4341 69.0871 86.1822 68.6684 86.6512C66.7373 88.8144 64.4305 87.9004 62.1243 87.5544C63.1911 87.1317 64.2579 86.7089 65.3247 86.2862C65.2582 86.0762 65.1917 85.8663 65.1251 85.6563C64.4598 85.7323 63.7945 85.8082 62.8596 85.915C63.1131 85.3392 63.2852 84.9479 63.56 84.3236C55.6124 86.3883 47.8754 88.4151 39.6845 88.7143C39.499 88.2317 39.2279 87.5263 39.0106 86.9612C40.5648 86.2545 42.0798 85.5657 43.601 84.874C44.8735 85.5567 45.8904 85.8333 47.4399 84.831C48.8606 83.9119 50.9219 83.9224 52.7132 83.5916C53.6771 83.4137 54.6668 83.3791 55.6449 83.2799L55.6204 82.6113L37.8233 82.4769C37.6627 81.6209 37.4821 80.6582 37.2844 79.6046C37.7248 79.9233 38.136 80.2208 38.5303 80.5061C39.5849 79.6036 42.2296 79.7086 43.3726 80.0243C44.8985 80.4457 46.5854 80.3489 48.206 80.432C48.5144 80.4477 48.8387 80.1834 49.1518 80.1876C51.3648 80.2172 53.5768 80.3528 55.7892 80.3222C59.6996 80.2681 63.62 80.2597 67.5158 79.9444C69.1406 79.813 70.7132 78.9448 72.6368 78.3023C72.9048 77.512 73.3562 76.3135 75.02 77.4057C75.1947 77.4751 75.3851 77.5003 75.5737 77.4791C75.7623 77.4578 75.943 77.3907 76.0994 77.284C77.081 75.5961 78.4114 75.433 80.3405 76.6374C80.0754 75.8844 79.9736 75.5951 79.9251 75.4571C80.3707 75.1888 80.8331 74.9484 81.3093 74.7372C82.4915 74.2944 83.6774 73.8485 84.8895 73.4996C88.8723 72.3532 92.8715 71.2633 96.8567 70.1245C99.9445 69.2422 103.034 68.3605 106.098 67.4007C108.378 66.6865 110.611 65.8262 112.879 65.073C114.073 64.6764 115.297 64.3668 116.509 64.0247C116.894 63.9161 117.38 63.9394 117.656 63.7121C118.422 63.132 119.354 62.8029 120.317 62.7723C123.149 62.4065 125.903 61.4078 128.817 60.6271C128.76 60.8224 128.605 61.3507 128.433 61.9376C130.192 62.7223 130.514 61.3492 130.799 60.6168C134.784 59.2109 138.464 57.9124 142.295 56.561C142.313 56.7837 142.34 57.1058 142.383 57.6111L155.947 53.0004C156.151 53.4429 156.41 54.0057 156.669 54.5684C157.27 54.1163 157.905 53.7118 158.571 53.3588C159.121 53.1139 159.802 53.1739 160.38 52.9718C163.649 51.8288 166.904 50.6476 170.164 49.4794C170.403 49.5936 170.642 49.7078 170.881 49.8221C170.404 50.1769 169.927 50.5317 169.451 50.8865L169.664 51.2547C172.382 50.3317 175.1 49.4087 177.819 48.4858C178.617 48.2691 179.758 49.8062 180.32 47.7324C180.354 47.6079 180.75 47.5746 180.977 47.4951C183.1 46.7486 185.194 45.5468 187.356 45.3844C189.44 45.2278 191.042 44.0019 192.874 43.7483C196.85 43.1975 200.259 41.3305 203.88 39.9273C205.825 39.174 207.875 38.6939 209.863 38.0477C211.526 37.5076 213.168 36.9054 214.962 36.2808L215.094 37.7056C216.855 37.1351 218.533 36.591 220.393 35.9883L220.975 37.1574L230.981 34.4762C231.105 35.3196 231.212 36.0532 231.38 37.1967L230.385 38.4299C231.488 39.0058 232.503 39.5355 233.518 40.0653L234.203 39.8324C233.956 41.4096 233.599 42.9698 233.133 44.502C232.308 46.7142 235.615 46.6076 234.855 49.1586C250.181 45.0733 264.99 41.118 279.803 37.1801C288.271 34.9293 296.739 32.6829 305.221 30.4862C307.763 29.8275 308.833 30.3314 310.288 32.4577C314.053 37.9605 315.056 44.1411 314.78 50.6465C314.737 51.6505 314.789 52.6571 314.799 53.9111C317.2 53.2678 319.448 52.6122 321.723 52.0689C324.835 51.3256 325.875 51.7933 327.559 54.3615C331.163 59.8581 332.19 65.9536 331.768 72.3906C331.598 73.2493 331.516 74.1211 331.523 74.9932C331.682 76.0785 332.543 76.254 333.588 75.9772C336.955 75.0859 340.327 74.219 343.706 73.3765C347.983 72.3087 348.636 72.5044 350.944 76.0964C354.203 81.1691 354.787 86.9041 354.83 92.755C354.841 94.2911 355.01 95.8252 354.987 97.3601C354.951 98.2001 354.801 99.0331 354.54 99.8371C354.086 101.468 353.538 103.075 352.899 104.648C352.604 105.404 352.035 106.032 351.302 106.412C348.255 107.541 345.139 108.488 342.047 109.498C341.588 109.588 341.144 109.738 340.724 109.942C340.383 110.169 339.975 110.614 339.987 110.944C340.049 111.141 340.161 111.319 340.312 111.462C340.462 111.606 340.648 111.71 340.851 111.766C341.769 111.925 342.636 112.283 343.388 112.813C344.141 113.343 344.761 114.033 345.202 114.831C345.533 115.354 346.887 115.62 347.643 115.444C349.784 114.946 351.691 114.271 352.983 116.917C353.656 118.295 355.524 119.207 355.919 120.594C356.784 123.632 359.466 126.57 357.002 130.045C356.949 130.124 356.916 130.214 356.904 130.307C356.892 130.401 356.903 130.495 356.935 130.583C357.794 131.791 356.9 132.76 356.685 133.908C356.118 136.937 354.215 138.9 352.393 141.171C350.538 143.483 348.197 144.807 345.666 145.902C341.954 147.508 337.959 148.529 334.373 150.351C330.085 152.53 326.1 155.29 321.984 157.798L322.244 158.45C322.9 158.427 323.554 158.358 324.201 158.242C327.185 157.501 330.149 156.679 333.135 155.949C338.697 154.59 339.556 154.82 342.134 159.86C344.538 164.559 345.159 169.724 345.221 174.984C345.244 176.856 345.752 178.717 346.032 180.584C346.069 181.223 346.164 181.856 346.315 182.477C346.567 183.016 346.879 183.526 347.245 183.997L347.844 183.938L345.533 188.559C350.64 187.191 356.021 185.707 361.425 184.315C365.113 183.366 368.823 182.495 372.543 181.682C375.361 181.067 376.51 181.644 378.033 183.983C381.64 189.522 382.42 195.665 382.018 202.098C381.931 203.484 382.179 204.883 382.197 206.278C382.21 206.926 382.115 207.573 381.916 208.195C381.294 210.05 380.663 211.908 379.887 213.706C379.598 214.354 379.071 214.875 378.411 215.164C375.912 216.026 373.339 216.678 370.832 217.518C370.037 217.853 369.366 218.42 368.913 219.141C371.023 219.273 372.81 221.512 374.718 219.801C378.641 221.017 382.44 222.195 386.382 223.417L384.883 224.406L386.782 225.98C385.501 227.616 384.992 230.836 386.073 232.194C385.217 232.853 384.315 233.476 383.502 234.195C382.684 234.92 382.098 235.831 383.025 236.801C384.814 238.673 383.09 240.338 382.556 241.958C382.23 242.947 380.977 243.633 380.254 244.54C380.024 244.829 380.168 245.393 380.122 245.829C380.135 246.09 380.082 246.352 379.97 246.592C377.94 249.28 375.976 252.026 373.778 254.579C373.172 255.283 371.876 255.581 370.848 255.74C369.883 255.889 368.949 255.751 368.678 256.988C368.661 257.064 368.049 257.169 367.961 257.063C366.817 255.683 365.131 256.621 363.805 256.137C363.324 255.878 362.89 255.542 362.522 255.144C361.504 254.292 360.624 253.127 359.444 252.656C358.057 252.103 357.076 251.439 356.631 250.054C358.823 250.166 361.018 250.279 363.473 250.405C361.877 247.834 359.156 248.229 356.931 247.805C356.109 247.649 355.037 248.67 353.813 249.288C355.113 249.649 355.914 249.871 356.716 250.094ZM351.86 231.387C351.247 231.604 350.624 231.789 349.992 231.944C349.144 232.111 348.279 232.188 347.421 232.304L347.29 232.871C347.843 233.204 348.533 233.929 348.923 233.795C350.008 233.338 351.035 232.758 351.983 232.067C352.054 232.023 351.873 231.597 351.814 231.352C353.031 231.574 354.243 231.844 355.471 231.96C355.631 231.976 355.879 231.197 356.087 230.785L355.705 230.174C354.424 230.578 353.142 230.982 351.86 231.387ZM365.8 231.003C363.604 231.305 365.081 229.783 364.772 228.868C364.018 229.541 363.534 230.261 362.871 230.507C361.034 231.189 359.128 231.69 357.24 232.229C356.336 232.487 355.373 232.57 354.504 232.903C351.362 234.108 348.449 236.047 344.865 235.791C344.817 235.787 344.753 235.957 344.696 236.046L345.155 235.327L349.127 238.949L349.229 238.09L351.45 236.161L351.817 236.611L350.268 237.635C352.779 238.972 353.834 236.048 356.402 235.992C355.609 236.447 355.193 236.641 354.831 236.905C354.421 237.205 354.059 237.568 353.374 238.168L355.941 238.407C356.305 240.634 356.305 240.634 358.639 239.765C359.865 241.217 359.865 241.217 364.481 240.958C364.499 240.615 364.399 240.208 364.556 239.948C365.638 238.156 366.97 239.215 368.22 239.759C369.261 238.556 369.539 236.351 371.691 237.359C371.184 236.258 370.664 235.124 370.143 233.991C369.442 233.965 368.852 233.406 368.26 232.848C368.022 232.624 367.779 232.404 367.539 232.183C367.293 232.46 366.933 232.701 366.821 233.021C366.511 233.91 366.304 234.832 366.022 235.867C365.607 235.668 365.199 235.577 365.191 235.453C365.088 234.239 365.05 233.019 365.076 231.799C365.085 231.529 365.547 231.268 365.8 231.003ZM359.122 221.996L359.416 222.613C360.919 221.095 362.579 220.469 363.946 222.095C365.005 223.353 365.702 222.982 366.303 222.308C368.506 222.81 370.495 223.263 372.484 223.717L372.668 223.145C372.062 222.813 371.423 222.542 370.76 222.336C369.27 222.023 367.812 221.946 366.608 220.684C365.725 219.967 364.591 219.609 363.436 219.682C362.38 219.722 361.34 220.448 360.293 220.872L360.22 220.522C359.854 221.013 359.488 221.505 359.122 221.996ZM338.508 239.615L339.554 240.792C339.825 240.543 340.319 240.3 340.33 240.043C340.408 238.187 340.874 237.936 342.664 238.951C343.851 239.624 344.726 239.28 345.5 238.327C342.769 237.516 340.11 236.923 337.458 238.47C337.195 238.623 336.696 238.36 336.303 238.329C335.215 238.243 333.963 239.177 333.911 240.134L335.866 238.956C336.159 239.765 336.39 240.405 336.623 241.05L338.508 239.615ZM374.59 248.48C372.324 247.738 370.653 247.273 369.053 246.641C367.463 246.014 367.452 247.964 366.367 248.089C366.554 248.386 366.711 248.917 366.934 248.942C368.934 249.164 370.944 249.363 372.957 249.41C373.45 249.422 373.966 248.853 374.59 248.48ZM344.69 234.956L345.008 234.41C344.424 234.056 343.803 233.355 343.261 233.416C341.78 233.68 340.318 234.048 338.888 234.517C339.346 235.122 339.764 236.006 340.032 235.961C340.698 235.732 341.318 235.388 341.861 234.944L341.699 234.595C342.696 234.715 343.693 234.835 344.69 234.956ZM338.249 235.678C336.748 234.469 336.37 235.638 335.985 236.551C334.101 237.055 332.062 235.967 330.4 237.301C333.024 236.993 336.052 238.362 338.249 235.678ZM80.1558 94.6932C80.1986 94.8993 80.2414 95.1053 80.2843 95.3112C81.9395 94.9633 83.5948 94.6153 85.8581 94.1395C84.4107 93.4526 82.1959 94.6861 83.3171 91.7094C82.0431 92.3498 81.28 92.7335 80.3947 93.1784L82.4091 93.6939L82.3405 94.1078L80.1558 94.6932ZM362.567 245.731L362.942 246.538C363.992 245.895 365.881 246.962 366.158 244.785C366.179 244.617 365.913 244.419 365.601 243.986C365.422 244.54 365.332 244.82 365.385 244.656C364.296 245.072 363.431 245.402 362.567 245.731Z" fill="#FADE4F"/>
<path d="M303.386 177.995C299.748 175.379 296.524 172.243 293.817 168.69C291.551 165.637 288.092 161.088 287.864 157.225C287.858 157.038 287.812 156.854 287.73 156.685C287.647 156.517 287.529 156.368 287.384 156.247C287.603 153.202 287.8 150.137 287.786 147.11C290.71 140.188 291.418 132.544 289.815 125.211C286.549 110.296 270.204 90.6203 252.901 98.9079C252.675 99.0058 252.472 99.1507 252.307 99.3328C252.142 99.5149 252.019 99.7301 251.945 99.9636C240.024 100.019 228.14 107.809 222.33 117.834C217.888 125.498 217.545 134.102 217.82 142.734C217.859 146.029 218.187 149.315 218.799 152.554C216.081 151.981 213.414 151.189 210.827 150.186C207.921 149.206 204.851 147.513 201.764 147.844C200.557 147.974 199.768 149.109 200.703 150.102C203.27 152.83 208.302 153.48 211.805 154.557C214.516 155.391 217.156 156.47 219.836 156.215C220.724 158.751 222.19 161.051 224.121 162.937C228.655 167.269 235.044 168.229 241.173 168.315C240.175 171.041 240.139 174.021 241.071 176.77C241.094 177.275 241.114 177.778 241.111 178.271C241.094 181.394 240.964 184.514 240.67 187.624C240.027 194.149 238.748 200.597 236.852 206.879C236.739 207.31 236.779 207.766 236.966 208.171C237.153 208.575 237.475 208.904 237.878 209.102C239.397 209.941 240.944 210.722 242.519 211.443C241.028 214.592 241.015 218.516 240.775 221.914C240.409 226.472 240.392 231.05 240.726 235.61C240.908 237.8 244.654 237.854 244.591 235.61C244.469 231.275 244.316 226.969 244.549 222.634C244.724 219.392 245.557 215.92 245.304 212.65C249.444 214.339 253.75 215.601 258.152 216.416C261.484 217.031 264.858 217.396 268.246 217.508C269.288 217.542 270.33 217.542 271.372 217.525C270.702 219.103 270.672 221.097 270.423 222.817C269.782 227.051 269.513 231.331 269.619 235.611C269.692 237.986 273.769 237.999 273.759 235.611C273.68 231.575 273.854 227.538 274.278 223.524C274.529 221.442 275.424 219.236 275.05 217.306C276.371 217.043 277.725 216.977 279.066 217.112C279.069 217.193 279.067 217.275 279.07 217.356C279.159 219.415 282.787 219.994 283.208 217.85C284.321 212.188 284.297 206.186 284.698 200.436C285.065 195.178 285.408 189.918 285.728 184.657C287.97 186.806 290.213 188.953 292.458 191.099C294.266 192.819 295.846 194.356 298.361 194.917C300.936 195.491 302.192 192.024 299.505 191.259C297.107 190.576 295.102 187.948 293.363 186.286L290.203 183.268C294.062 182.167 298.008 181.39 301.999 180.946C303.327 180.799 304.915 179.123 303.386 177.995ZM282.859 160.416C282.456 166.832 282.031 173.247 281.586 179.66C281.158 185.816 280.73 191.972 280.301 198.128C279.959 202.996 279.257 208.021 279.075 212.965C277.502 212.953 275.93 213.037 274.368 213.217C270.396 213.473 266.408 213.353 262.459 212.86C255.178 211.911 248.115 209.736 241.576 206.426C243.219 200.505 244.341 194.454 244.929 188.341C245.251 184.994 245.395 181.633 245.358 178.271C245.323 175.571 245.517 172.811 244.414 170.357C244.39 169.668 244.328 168.98 244.229 168.297C244.504 168.291 244.78 168.285 245.052 168.277C253.659 168.024 262.642 167.64 270.688 164.3C275.568 162.272 279.847 159.047 283.121 154.93C283.045 156.768 282.973 158.602 282.859 160.416ZM284.998 142.026C284.777 142.107 284.581 142.245 284.433 142.426C284.285 142.608 284.189 142.826 284.156 143.057C284.01 143.884 283.892 144.718 283.786 145.555C281.496 151.282 277.354 156.097 272.008 159.248C265.457 163.066 257.619 163.863 250.183 164.273C243.757 164.628 236.288 165.475 230.321 162.554C223.635 159.28 222.443 151.647 222.154 145.004C221.838 137.751 221.659 130.03 224.458 123.189C230.02 109.597 244.093 103.08 258.225 103.268C258.46 103.284 258.695 103.235 258.905 103.128C259.114 103.021 259.29 102.86 259.414 102.661C259.537 102.463 259.604 102.234 259.606 102.001C259.608 101.768 259.546 101.538 259.427 101.337C271.494 100.386 281.398 112.388 284.722 123.227C286.593 129.344 286.689 135.858 284.998 142.026ZM285.979 180.508C286.273 175.404 286.552 170.3 286.816 165.195C287.635 166.461 288.469 167.583 289.018 168.366C291.481 171.867 294.348 175.07 297.563 177.911C293.629 178.42 289.751 179.289 285.979 180.508Z" fill="#1D1D1B"/>
<path d="M241.347 129.222C241.347 132.003 239.413 131.476 237.026 131.476C235.88 131.476 234.78 130.946 233.97 130.001C233.159 129.057 232.704 127.776 232.704 126.441C232.704 123.66 234.946 124.463 237.026 123.099C239.016 121.794 241.347 126.441 241.347 129.222Z" fill="#1D1D1B"/>
<path d="M254.313 134.503C254.313 137.012 256.634 139.049 259.165 137.406C265.117 133.541 265.117 136.05 265.117 133.541C265.117 131.032 262.315 128.302 259.715 127.302C257.228 126.346 254.313 131.994 254.313 134.503Z" fill="#1D1D1B"/>
<path d="M210.62 188.078C209.568 183.827 208.637 179.548 207.83 175.242C207.007 170.862 206.308 166.462 205.732 162.04C205.397 159.482 205.528 156.341 204.783 153.7C204.897 151.793 204.978 149.886 204.969 147.995C207.69 141.547 208.349 134.426 206.857 127.595C203.818 113.703 188.606 95.3747 172.503 103.095C172.292 103.186 172.104 103.321 171.95 103.49C171.797 103.66 171.682 103.86 171.613 104.078C160.519 104.13 149.458 111.385 144.051 120.724C139.917 127.863 139.598 135.878 139.853 143.918C140.062 150.479 140.659 157.899 145.717 162.737C147.582 164.479 149.834 165.764 152.291 166.486C150.959 167.822 150.634 169.482 150.194 171.435C149.544 174.13 148.67 176.767 147.579 179.318C145.283 184.943 143.037 190.589 140.775 196.228C139.893 198.426 143.803 199.263 144.638 197.167C146.721 191.944 148.824 186.729 150.876 181.495C152.726 176.777 153.833 172.046 155.132 167.182C157.264 167.549 159.424 167.738 161.588 167.747C160.659 170.286 160.626 173.062 161.493 175.622C161.515 176.093 161.532 176.561 161.53 177.02C161.515 179.929 161.393 182.836 161.119 185.733C160.521 191.811 159.331 197.817 157.566 203.668C157.461 204.069 157.499 204.494 157.673 204.871C157.847 205.249 158.146 205.555 158.521 205.739C159.634 206.354 160.768 206.926 161.913 207.474C160.152 211.314 159.955 215.828 159.44 219.978C158.809 225.07 158.209 230.207 158 235.334C157.906 237.641 161.758 237.581 161.972 235.334C162.417 230.681 162.707 226.019 163.226 221.371C163.686 217.262 164.847 212.82 164.525 208.656C168.655 210.423 172.969 211.729 177.39 212.552C180.138 213.055 182.917 213.377 185.709 213.514C185.292 214.731 184.984 215.982 184.786 217.253C183.683 223.241 183.087 229.613 183.787 235.68C184.045 237.91 187.781 238.028 187.777 235.68C187.77 231.885 187.62 228.136 187.931 224.344C188.089 222.428 188.317 220.521 188.617 218.621C188.789 217.518 188.835 214.955 189.366 213.622C189.382 213.613 189.397 213.603 189.412 213.594C190.224 213.584 191.037 213.558 191.848 213.516C193.272 213.44 195.322 212.913 196.853 213.2C196.856 213.276 196.854 213.352 196.858 213.428C196.941 215.346 200.317 215.885 200.709 213.887C201.744 208.614 201.722 203.023 202.095 197.666C202.512 191.695 202.897 185.723 203.252 179.748C203.371 177.692 203.475 175.635 203.589 173.579C203.698 174.213 203.805 174.849 203.92 175.483C204.656 179.565 205.502 183.627 206.458 187.667C207.411 191.696 208.053 196.368 210.159 199.964C210.88 201.194 213.308 200.755 213.256 199.224C213.129 195.49 211.518 191.703 210.62 188.078ZM200.384 160.389C200.008 166.365 199.613 172.34 199.199 178.315C198.801 184.049 198.402 189.783 198.003 195.517C197.684 200.052 197.031 204.733 196.862 209.337C195.398 209.326 193.935 209.404 192.481 209.572C188.784 209.81 185.073 209.699 181.398 209.239C174.622 208.356 168.048 206.329 161.963 203.246C163.492 197.731 164.536 192.095 165.083 186.401C165.383 183.283 165.517 180.152 165.483 177.02C165.45 174.505 165.63 171.934 164.604 169.649C164.582 169.006 164.524 168.366 164.432 167.73C164.688 167.724 164.945 167.719 165.198 167.711C173.209 167.475 181.569 167.118 189.057 164.007C193.599 162.117 197.58 159.113 200.628 155.278C200.557 156.991 200.49 158.699 200.384 160.389ZM202.374 143.259C202.168 143.334 201.987 143.463 201.849 143.632C201.711 143.8 201.621 144.003 201.59 144.219C201.455 144.989 201.345 145.766 201.247 146.546C199.115 151.881 195.261 156.366 190.285 159.3C184.188 162.857 176.894 163.6 169.973 163.982C163.993 164.312 157.041 165.101 151.488 162.38C145.266 159.33 144.156 152.22 143.887 146.032C143.594 139.277 143.426 132.084 146.031 125.712C151.208 113.052 164.305 106.981 177.458 107.156C177.677 107.171 177.895 107.126 178.09 107.026C178.285 106.926 178.449 106.776 178.564 106.591C178.679 106.406 178.741 106.193 178.743 105.976C178.745 105.759 178.687 105.545 178.576 105.358C189.807 104.471 199.024 115.651 202.118 125.747C203.859 131.445 203.948 137.513 202.374 143.259Z" fill="#1D1D1B"/>
<path d="M163.557 148.18C163.557 149.491 162.988 150.749 161.975 151.676C160.962 152.603 159.588 153.124 158.155 153.124C156.722 153.124 155.348 152.603 154.335 151.676C153.322 150.749 152.753 149.491 152.753 148.18C152.753 145.449 155.555 146.238 158.155 144.898C160.643 143.617 163.557 145.449 163.557 148.18Z" fill="#1D1D1B"/>
<path d="M174.362 149.741C174.362 151.818 176.78 153.323 179.764 153.103C182.747 152.884 185.166 151.022 185.166 148.945C185.166 146.869 182.364 147.675 179.764 146.848C177.276 146.056 174.362 147.665 174.362 149.741Z" fill="#1D1D1B"/>
</svg>
