<svg width="417" height="355" viewBox="0 0 417 355" fill="none" xmlns="http://www.w3.org/2000/svg">
<path d="M262.865 51.3098C263.209 50.3561 263.659 49.4439 264.206 48.5904C264.448 48.3125 264.743 48.0859 265.074 47.9242C265.404 47.7624 265.764 47.6688 266.132 47.6489C267.244 47.6634 268.345 48.0854 269.461 48.2725C269.844 48.3366 270.337 48.0473 270.646 48.1968C272.491 49.092 272.477 49.1191 272.576 47.2405C273.322 45.0711 276.443 49.3766 276.615 45.3269C278.797 45.5162 281.229 45.8701 282.772 42.9587C282.917 43.268 283.062 43.5773 283.207 43.8866C282.909 44.503 282.611 45.1194 282.313 45.7358L282.987 46.1565C283.421 45.2507 283.8 44.3112 284.314 43.4537C284.432 43.2239 284.595 43.0202 284.793 42.8545C284.991 42.6888 285.221 42.5645 285.468 42.489C286.014 42.4555 286.586 42.8601 287.333 43.148C287.504 42.0126 287.842 41.4085 289.701 41.7536C291.584 42.103 293.771 41.3007 295.732 42.0336C296.726 42.4051 297.531 43.28 298.487 43.9745C298.35 44.4324 298.169 45.0383 297.867 46.0507C298.797 45.6755 299.621 45.5989 299.882 45.1755C300.236 44.5999 300.16 43.7592 300.245 43.1875C302.449 44.3975 302.412 44.7954 299.256 47.4629C299.676 47.8761 300.085 48.277 300.229 48.4186C301.252 47.5482 302.121 46.8089 303.312 45.7952C303.65 48.9811 299.179 48.7331 300.402 51.9542L303.215 50.5785C302.183 54.004 303.199 55.1143 306.575 54.4413C312.003 53.3593 317.393 52.0898 322.815 50.9769C324.005 50.7327 325.45 50.3857 326.451 50.8268C329.137 52.0102 331.667 50.5744 334.177 50.7891C338.493 51.0693 342.759 51.8626 346.887 53.1521C349.709 54.1044 350.45 58.071 349.46 61.1025C348.951 62.6618 348.731 64.0605 349.848 65.856C351.244 68.1008 351.266 70.7589 350.198 73.6615C347.828 80.1023 342.475 83.843 337.921 88.2579C335.934 90.1846 333 91.1782 330.421 92.4431C323.549 95.8141 316.627 99.0847 309.747 102.441C308.595 103.073 307.477 103.764 306.396 104.511C311.613 103.238 316.789 101.882 322.016 100.762C323.508 100.451 325.056 100.537 326.504 101.012C328.435 101.689 330.177 102.245 332.261 101.58C334.211 100.957 344.095 103.915 345.568 105.309C347.235 106.887 347.755 110.193 347.156 112.471C346.863 113.585 347.417 114.923 347.593 116.159C347.802 117.627 348.457 119.198 348.141 120.542C347.408 123.669 346.228 126.694 345.191 129.747C344.51 131.755 343.161 132.518 340.976 132.295C340.121 132.208 339.089 132.93 338.279 133.489C335.55 135.369 332.884 137.342 330.194 139.279L329.521 138.761C329.778 139.517 329.986 140.293 330.3 141.024C331.582 144.011 332.193 144.399 335.297 143.651C344.922 141.334 354.749 140.92 364.564 140.712C368.488 140.591 372.408 141.064 376.191 142.117C378.19 142.701 380.047 143.694 381.644 145.032C383.241 146.371 384.543 148.026 385.469 149.892C386.709 152.321 388.103 154.679 389.203 157.168C389.66 158.2 390.016 159.726 389.582 160.623C387.846 164.216 386.776 168.26 382.965 170.583C381.529 171.459 380.457 172.981 379.328 174.302C378.181 175.669 376.752 176.773 375.139 177.538C373.527 178.303 371.768 178.71 369.983 178.733C366.369 178.888 362.759 179.103 359.323 179.283C361.128 182.463 363.06 185.578 364.651 188.86C365.083 189.75 364.815 191.324 364.292 192.264C363.17 194.281 363.096 196.006 364.431 197.928C365.072 198.851 365.09 199.817 364.605 201.157C363.783 203.429 363.822 206.012 363.5 208.464L364.211 208.811L360.748 209.705C360.503 212.122 360.259 214.532 360.015 216.935C358.182 215.744 355.629 215.326 357.21 212.541C355.921 211.867 354.875 211.334 354.802 213.547C354.74 215.442 352.035 216.608 350.305 215.654C349.618 215.279 348.812 215.184 348.056 215.389C343.266 217.227 338.527 219.198 333.763 221.106C329.248 222.914 324.735 224.727 320.197 226.474C317.87 227.369 315.438 228.008 313.163 229.011C312.769 229.239 312.433 229.555 312.183 229.936C311.933 230.316 311.776 230.75 311.724 231.202C311.718 232.847 312.01 234.48 312.587 236.021C312.97 236.887 313.135 237.834 313.07 238.779C313.004 239.724 312.708 240.638 312.209 241.443C310.815 243.924 310.699 246.455 310.952 249.41C311.452 255.268 310.443 261.107 307.302 266.315C307.12 266.519 306.896 266.68 306.645 266.788C306.393 266.896 306.122 266.947 305.848 266.938C305.015 266.958 304.19 266.758 303.458 266.36C298.887 263.229 294.909 265.226 290.691 267.372C286.659 269.333 282.517 271.058 278.285 272.538C263.651 277.939 248.981 283.24 234.326 288.583C233.63 288.837 232.951 289.134 232.136 289.463C231.853 291.082 232.723 293.687 229.835 293.627C228.987 293.609 228.172 292.003 227.343 291.126C227.466 290.893 227.589 290.66 227.713 290.428C226.717 290.749 225.699 291.014 224.73 291.401C214.552 295.463 204.364 299.499 194.224 303.653C191.858 304.622 189.748 304.606 187.632 303.221C184.673 301.285 181.356 299.723 178.846 297.319C175.412 294.03 172.593 290.1 169.362 286.268C166.315 287.739 163.392 289.219 160.412 290.572C153.349 293.779 146.309 297.045 139.154 300.034C136.409 301.181 132.451 299.283 130.615 296.944C129.619 295.676 128.595 294.509 126.41 294.362C122.622 294.109 120.667 290.794 118.578 288.022C117.834 287.033 117.275 285.905 116.621 284.847C115.073 282.341 115.126 281.241 117.781 279.93C121.34 278.173 124.511 276.106 127.094 273.032C127.769 272.23 129.409 272.303 130.525 271.796C137.018 268.846 143.549 265.967 149.951 262.829C160.229 257.792 170.419 252.576 180.641 247.426C184.294 245.659 187.843 243.684 191.27 241.512C186.842 243.298 182.414 245.083 177.986 246.869C174.213 248.391 170.47 249.993 166.645 251.372C165.769 251.687 164.613 251.236 163.588 251.123C163.214 251.082 162.816 250.877 162.479 250.956C159.327 251.701 157.505 250.407 156.298 247.479C155.795 246.256 154.43 245.389 153.232 244.123C149.387 245.337 146.747 242.676 143.679 239.929C138.8 242.522 133.81 245.194 128.801 247.828C125.38 249.626 121.922 251.351 118.498 253.142C112.817 256.113 107.16 259.127 101.476 262.091C96.5172 264.677 91.5448 267.235 86.5584 269.767C84.1711 271.054 81.7084 272.195 79.1836 273.185C78.1806 273.548 76.852 272.987 75.6683 272.886C75.043 272.915 74.4164 272.897 73.7939 272.831C72.4333 272.493 70.736 272.407 69.8424 271.535C68.2583 269.989 67.1698 267.935 65.8179 266.014C58.9678 267.145 56.1093 261.92 52.7251 257.62C51.4511 256.002 50.5569 254.089 49.4161 252.359C48.4223 250.852 48.5432 249.583 50.0182 248.52C51.286 247.607 52.5875 246.741 53.8754 245.856C56.2868 244.198 58.728 242.582 61.0831 240.848C61.2996 240.644 61.462 240.39 61.5556 240.108C61.6492 239.826 61.6709 239.525 61.619 239.232C61.4593 238.965 61.2412 238.737 60.981 238.566C60.7207 238.395 60.4251 238.285 60.1163 238.244C59.4328 238.185 58.712 238.558 57.5114 238.323L59.7892 235.626C59.4828 235.114 59.0828 234.446 58.533 233.528C58.2522 234.239 58.0391 234.778 57.7292 235.562L56.9831 234.43C59.0562 233.25 58.7646 229.701 62.0839 229.56C62.9272 229.524 63.5678 227.685 64.5417 227.032C65.9279 226.104 67.5689 225.566 69.0416 224.754C71.1067 223.614 73.1369 222.408 75.1468 221.174C79.1548 218.711 83.1358 216.205 87.1337 213.726C90.8551 211.419 94.6223 209.182 98.2874 206.789C99.4876 206.005 100.385 204.773 101.506 203.848C102.426 203.167 103.38 202.535 104.366 201.954C104.193 199.148 103.363 198.43 100.286 198.408C96.849 198.383 94.6769 195.983 92.7433 193.673C90.5111 190.904 88.4852 187.974 86.6817 184.908C85.2575 182.583 85.677 181.503 88.538 179.485C90.0147 178.443 91.7684 177.8 93.2803 176.801C95.3357 175.442 97.2794 173.914 99.271 172.459L98.8957 171.858C95.7068 173.144 92.5179 174.43 89.329 175.717C84.6321 177.611 79.9749 179.615 75.2156 181.337C73.6536 181.903 71.7667 183.429 70.1143 181.186C69.9797 181.004 69.2359 181.233 68.7862 181.325C66.3426 181.824 64.7235 180.987 63.5532 178.693C62.7657 177.151 61.4234 175.888 60.2976 174.526C60.2026 174.45 60.0919 174.397 59.9735 174.37C59.8551 174.343 59.7322 174.343 59.6139 174.37C55.2663 175.484 52.6501 172.596 50.3622 169.872C47.8336 166.862 45.8433 163.379 43.8278 159.978C43.4567 159.352 43.7513 157.765 44.3126 157.262C45.8315 155.902 47.5176 154.485 49.3955 153.822C52.8201 152.612 54.8748 149.846 57.4263 147.643C57.9206 147.216 58.0497 146.367 58.3834 145.633C61.4929 145.667 63.6338 144.445 64.3209 142.12C62.816 141.005 62.2293 139.752 63.0303 137.808C63.7045 136.171 63.766 134.291 64.3327 132.598C64.8967 130.912 68.2427 130.316 70.6222 131.661L69.7168 129.416L82.5304 125.51C83.5279 124.83 84.3713 123.896 85.3834 123.646C87.031 123.24 88.8183 123.422 90.4872 123.073C91.2699 122.908 91.9272 122.1 92.6174 121.553C93.2947 121.016 93.8646 120.134 94.6175 119.945C96.3781 119.503 97.9704 119.332 99.6809 118.109C102.272 116.257 105.664 115.54 108.681 114.26C109.964 113.716 111.105 112.812 112.408 112.34C115.066 111.377 117.79 110.597 120.532 109.726C120.599 109.893 120.549 109.299 120.23 109.051C116.916 106.482 117.627 103.087 118.266 99.7148C118.3 99.5137 118.375 99.3216 118.486 99.1501C118.597 98.9787 118.741 98.8314 118.911 98.7172C121.904 97.3404 122.974 94.7653 124.275 91.8759C125.892 88.2846 129.792 86.5225 133.351 84.9845C139.599 82.285 146.055 80.0563 152.249 77.2464C159.236 74.0774 166.067 70.5575 172.899 67.0594C184.593 61.0713 196.09 54.6758 207.945 49.0288C217.82 44.325 228.049 40.3482 238.211 36.273C241.007 35.1516 244.09 34.6541 247.183 35.7612C248.374 36.1039 249.599 36.317 250.837 36.3969C255.126 36.9357 257.604 39.3301 258.333 43.58C258.452 44.4347 258.754 45.2539 259.217 45.9816C259.818 46.8329 260.89 47.3789 261.39 48.2645C261.834 49.0494 261.775 50.1187 261.938 51.0625L262.865 51.3098Z" fill="#FFDC17"/>
<path d="M159.239 138.364C156.832 122.442 165.41 96.9644 185.414 98.7102C185.672 98.7226 185.925 98.7902 186.154 98.9086C186.383 99.0269 186.585 99.1932 186.744 99.3962C198.406 95.0227 212.933 98.2897 222.368 106.018C229.581 111.927 233.144 120.285 236.115 128.9C238.539 135.93 240.901 144.025 237.542 151.166C235.122 156.312 230.405 159.488 225.329 161.781C228.315 162.42 231.237 163.332 234.056 164.508C235.348 165.053 236.614 165.658 237.854 166.322C238.722 166.787 239.938 167.842 241.052 168.504C245.693 163.428 252.3 159.755 254.388 152.95C255.227 150.497 259.543 151.371 258.803 154.033C258.491 155.144 258.063 156.22 257.526 157.242C256.368 159.93 254.931 162.489 253.238 164.876C251.282 167.607 248.463 171.607 245.303 173.009C244.409 173.411 243.411 173.518 242.452 173.314C242.102 173.463 241.724 173.538 241.344 173.533C240.963 173.528 240.587 173.445 240.241 173.287C235.228 171.214 229.357 169.334 225.175 165.786C225.049 165.755 224.923 165.721 224.796 165.692C225.673 167.364 226.147 169.218 226.181 171.105C226.348 171.613 226.518 172.116 226.705 172.6C227.893 175.674 229.192 178.703 230.646 181.661C233.705 187.824 237.35 193.677 241.531 199.141C243.375 198.105 245.122 196.904 246.75 195.552C248.942 193.557 250.535 191.602 253.497 190.85C253.819 190.758 254.157 190.737 254.488 190.79C254.819 190.843 255.134 190.968 255.411 191.155C255.689 191.343 255.921 191.59 256.093 191.878C256.264 192.166 256.371 192.488 256.404 192.821C256.621 194.96 258.073 196.874 258.883 198.833C259.707 200.855 260.259 202.977 260.526 205.144C260.98 208.655 261.025 212.83 259.093 215.903C258.2 217.322 255.693 216.779 255.617 215.065C255.423 210.695 256.609 206.979 255.368 202.548C254.698 200.155 253.4 198.07 252.557 195.811C250.411 197.265 248.491 199.738 246.523 201.046C244.361 202.484 242.194 203.669 239.624 203.876C235.179 208.814 230.044 213.083 224.377 216.551C221.355 218.396 218.197 220.01 214.931 221.379C213.181 222.11 211.403 222.765 209.596 223.344C209.169 223.481 208.672 223.6 208.151 223.72C208.299 223.968 208.362 224.258 208.331 224.545C208.299 224.832 208.175 225.101 207.976 225.31C204.304 230.246 199.167 234.317 194.552 238.347C194.218 238.643 193.811 238.843 193.373 238.926C192.935 239.008 192.483 238.971 192.065 238.817C191.646 238.662 191.278 238.398 190.998 238.05C190.719 237.703 190.539 237.286 190.478 236.845C190.11 234.109 186.332 230.904 184.688 228.889C183.682 227.655 182.675 226.42 181.668 225.186C181.195 224.605 179.857 222.321 179.061 221.677C178.542 221.662 178.047 221.455 177.673 221.096C177.298 220.737 177.071 220.251 177.034 219.733L177.013 219.465C176.912 218.192 178.309 217.377 179.397 217.343C182.93 217.234 185.464 222.508 187.369 224.858C189.395 227.357 192.198 229.966 193.875 232.935C196.014 230.968 198.117 228.932 200.283 226.991C197.164 221.887 194.965 216.076 192.461 210.653C189.619 204.497 186.808 198.327 184.029 192.143C183.818 191.671 183.611 191.197 183.399 190.724C176.791 189.165 170.26 187.261 163.686 185.565C163.372 185.507 163.076 185.374 162.825 185.177C162.573 184.98 162.372 184.726 162.239 184.435C162.106 184.144 162.045 183.826 162.061 183.507C162.077 183.188 162.17 182.877 162.331 182.601C164.394 179.158 166.191 175.562 167.707 171.845C168.822 169.08 169.309 165.963 171.288 163.722C170.634 162.226 170.005 160.723 169.437 159.209C163.985 153.468 160.425 146.192 159.239 138.364ZM186.702 186.815C189.841 187.4 193.085 186.943 195.94 185.513C198.484 184.219 200.953 187.513 198.356 189.191C195.536 190.978 192.216 191.812 188.886 191.568C191.219 196.627 193.553 201.685 195.888 206.743C198.049 211.418 200.62 216.113 202.652 220.921C204.184 220.324 205.751 219.823 207.344 219.421C211.318 218.197 215.167 216.598 218.838 214.644C225.592 211.004 231.672 206.234 236.815 200.541C232.989 195.312 229.624 189.761 226.755 183.951C225.185 180.77 223.784 177.508 222.558 174.178C221.579 171.503 220.355 168.852 220.511 166.023C220.275 165.334 220.078 164.633 219.918 163.922C219.648 164.018 219.376 164.115 219.108 164.209C210.607 167.156 201.692 170.115 192.582 169.81C187.056 169.623 181.668 168.032 176.926 165.188C177.69 166.972 178.448 168.754 179.24 170.501C181.71 175.947 184.197 181.385 186.702 186.815ZM167.57 182.321C171.887 183.367 176.21 184.384 180.52 185.455C180.725 185.505 180.926 185.556 181.129 185.607C179.453 181.839 177.781 178.069 176.112 174.299C175.328 172.517 174.493 170.728 173.657 168.931C173.038 170.724 172.33 172.485 171.534 174.207C170.361 176.981 169.038 179.69 167.57 182.321ZM171.461 153.862C171.914 154.624 172.342 155.402 172.759 156.189C177.144 160.987 182.996 164.197 189.398 165.317C197.228 166.65 205.18 164.524 212.594 162.166C219.002 160.128 226.614 158.19 231.344 153.092C236.644 147.379 234.945 139.408 232.734 132.749C230.321 125.479 227.599 117.797 222.299 112.09C211.769 100.752 195.581 99.5525 181.852 104.988C181.628 105.091 181.381 105.131 181.136 105.103C180.891 105.075 180.659 104.981 180.464 104.831C180.269 104.681 180.118 104.481 180.028 104.252C179.938 104.022 179.913 103.773 179.954 103.53C167.814 107.075 162.646 122.591 163.467 134.516C163.936 141.243 166.287 147.704 170.252 153.159C170.498 153.156 170.741 153.22 170.954 153.344C171.166 153.468 171.342 153.647 171.461 153.862Z" fill="#1D1D1B"/>
<path d="M205.788 128.567C205.788 131.357 208.049 129.368 210.839 129.368C213.628 129.368 215.889 128.567 215.889 125.778C215.889 122.988 213.269 123.794 210.839 122.425C208.513 121.116 205.788 125.778 205.788 128.567Z" fill="#1D1D1B"/>
<path d="M192.712 133.268C192.712 135.615 189.99 135.469 187.532 133.984C182.35 130.853 182.351 134.715 182.351 132.369C182.351 130.022 185.038 127.468 187.532 126.533C189.917 125.639 192.712 130.921 192.712 133.268Z" fill="#1D1D1B"/>
<g clip-path="url(#clip0_270_2499)">
<path d="M277.233 175.176L275.514 169.54L273.807 163.903L272.087 158.273L271.211 155.468L270.755 154.079L270.519 153.393C270.44 153.169 270.356 152.968 270.276 152.754L270.255 152.699C270.211 152.58 270.206 152.449 270.242 152.329C270.278 152.208 270.352 152.104 270.453 152.032C270.771 151.815 271.107 151.628 271.458 151.474C271.779 151.324 272.099 151.189 272.419 151.058C273.058 150.796 273.698 150.555 274.34 150.317C275.623 149.847 276.912 149.404 278.202 148.969C280.786 148.11 283.381 147.303 285.979 146.501C288.576 145.697 291.182 144.93 293.792 144.174L301.632 141.936C301.838 141.877 302.059 141.903 302.25 142.008C302.441 142.113 302.586 142.29 302.655 142.5L302.657 142.506L306.309 153.698L309.904 164.908L309.909 164.923C309.967 165.106 309.953 165.305 309.87 165.474C309.786 165.644 309.64 165.771 309.463 165.828C309.459 165.829 309.452 165.831 309.449 165.832L301.828 168.106C299.289 168.87 296.739 169.597 294.195 170.344C291.653 171.094 289.095 171.796 286.545 172.524C283.995 173.252 281.442 173.97 278.88 174.659C281.376 173.759 283.881 172.89 286.389 172.029C288.898 171.169 291.398 170.284 293.914 169.446C296.428 168.605 298.936 167.744 301.456 166.92L309.009 164.43L308.554 165.354L304.784 154.201L301.07 143.03L302.096 143.6C296.866 145.033 291.649 146.537 286.436 148.029C283.83 148.78 281.229 149.548 278.642 150.346C277.347 150.74 276.055 151.142 274.776 151.569C274.138 151.785 273.501 152.003 272.877 152.238C272.564 152.355 272.255 152.475 271.957 152.605C271.683 152.716 271.419 152.849 271.165 153.002L271.342 152.28C271.43 152.527 271.528 152.783 271.605 153.024L271.822 153.739L272.231 155.164L273.003 158.012C273.512 159.911 274 161.814 274.469 163.721L275.878 169.442C276.351 171.348 276.791 173.262 277.233 175.176Z" fill="#1A1A1A"/>
<path d="M274.451 176.049C277.552 174.967 280.668 173.931 283.787 172.909C286.908 171.891 290.032 170.882 293.164 169.901C296.294 168.916 299.426 167.936 302.567 166.986L307.275 165.549L311.992 164.146C312.197 164.085 312.419 164.109 312.61 164.214C312.8 164.319 312.944 164.497 313.011 164.707L313.013 164.712C313.731 166.989 314.469 169.26 315.169 171.543L315.172 171.554C315.205 171.661 315.217 171.773 315.207 171.884C315.198 171.995 315.168 172.103 315.117 172.201C315.067 172.299 314.999 172.386 314.916 172.456C314.833 172.526 314.737 172.579 314.633 172.611L314.614 172.616C311.226 173.563 307.848 174.541 304.452 175.462C301.06 176.392 297.668 177.328 294.266 178.222C290.868 179.136 287.46 180.011 284.051 180.884L281.49 181.527C281.059 181.633 280.647 181.744 280.201 181.845C279.519 181.993 278.808 181.954 278.138 181.732C277.469 181.51 276.864 181.112 276.385 180.578C276.08 180.229 275.833 179.831 275.653 179.401L275.11 178.149C275.565 178.931 275.905 179.812 276.555 180.405C277.183 181.008 277.991 181.372 278.84 181.435C279.253 181.464 279.667 181.419 280.062 181.303C280.468 181.183 280.896 181.038 281.312 180.907L283.825 180.1C287.18 179.04 290.536 177.982 293.903 176.961C297.264 175.923 300.638 174.925 304.009 173.921C307.378 172.909 310.764 171.954 314.14 170.968L313.586 172.04C312.855 169.767 312.162 167.482 311.451 165.203L312.471 165.769L307.743 167.138L303.006 168.475C299.85 169.373 296.685 170.242 293.519 171.105C290.354 171.973 287.18 172.813 284.004 173.644C280.827 174.47 277.646 175.283 274.451 176.049Z" fill="#1A1A1A"/>
<path d="M273.834 153.893C274.831 156.625 275.811 159.363 276.759 162.11C277.722 164.853 278.648 167.607 279.586 170.358L278.903 169.969L285.511 168.041L292.131 166.156C294.337 165.525 296.547 164.908 298.761 164.307L305.397 162.484L304.829 163.566L302.22 155.153L299.664 146.724L300.549 147.224L294.251 148.849C292.153 149.395 290.047 149.91 287.944 150.436C285.842 150.967 283.73 151.463 281.623 151.976C279.512 152.476 277.398 152.964 275.281 153.439C277.34 152.756 279.405 152.092 281.473 151.437C283.544 150.795 285.61 150.136 287.686 149.512C289.761 148.882 291.832 148.243 293.912 147.633L300.149 145.793C300.326 145.741 300.516 145.762 300.68 145.852C300.844 145.941 300.969 146.093 301.028 146.273L301.034 146.293L303.754 154.671L306.421 163.066C306.49 163.283 306.473 163.518 306.373 163.719C306.274 163.92 306.1 164.071 305.889 164.137C305.879 164.141 305.864 164.145 305.853 164.148L299.205 165.929C296.99 166.526 294.771 167.111 292.55 167.684L285.884 169.404L279.207 171.08L279.184 171.086C279.047 171.12 278.902 171.098 278.779 171.024C278.656 170.951 278.564 170.831 278.524 170.691C277.722 167.898 276.908 165.109 276.13 162.308C275.338 159.511 274.578 156.705 273.834 153.893Z" fill="#1A1A1A"/>
</g>
<g clip-path="url(#clip1_270_2499)">
<path d="M260.048 111.761L261.918 108.583L263.792 105.41L265.659 102.234L266.581 100.643L267.028 99.8444L267.244 99.4455C267.314 99.3142 267.371 99.1904 267.435 99.0631L267.452 99.0303C267.488 98.9592 267.546 98.9018 267.617 98.8672C267.688 98.8326 267.768 98.8228 267.843 98.8393C268.078 98.8937 268.306 98.9695 268.526 99.0658C268.731 99.1502 268.929 99.2405 269.124 99.3323C269.516 99.5159 269.898 99.7093 270.279 99.9042C271.039 100.296 271.788 100.703 272.535 101.113C274.024 101.94 275.496 102.795 276.965 103.653C278.435 104.508 279.891 105.385 281.344 106.268L285.695 108.933C285.809 109.003 285.891 109.116 285.923 109.249C285.955 109.381 285.936 109.523 285.868 109.644L285.866 109.647L282.254 116.067L278.61 122.47L278.605 122.478C278.546 122.583 278.448 122.66 278.335 122.694C278.221 122.727 278.101 122.713 277.999 122.656C277.997 122.655 277.994 122.652 277.992 122.651L273.718 120.102C272.291 119.255 270.877 118.388 269.456 117.532C268.033 116.678 266.627 115.796 265.212 114.93C263.797 114.062 262.386 113.19 260.984 112.301C262.455 113.07 263.916 113.857 265.375 114.648C266.832 115.44 268.299 116.217 269.75 117.022C271.202 117.824 272.66 118.616 274.107 119.428L278.452 121.855L277.833 122.036L281.377 115.578L284.953 109.138L285.124 109.851C282.25 108.048 279.349 106.28 276.454 104.51C275.005 103.627 273.55 102.753 272.087 101.899C271.357 101.469 270.625 101.044 269.887 100.635C269.517 100.432 269.147 100.231 268.774 100.043C268.588 99.9488 268.402 99.8571 268.216 99.7744C268.049 99.6957 267.875 99.6298 267.698 99.5775L268.106 99.3537C268.029 99.4989 267.952 99.652 267.874 99.7895L267.636 100.193L267.153 100.984L266.167 102.546C265.507 103.584 264.837 104.615 264.157 105.638L262.117 108.709C261.439 109.734 260.743 110.747 260.048 111.761Z" fill="#1A1A1A"/>
<path d="M258.468 110.848C260.28 111.819 262.076 112.816 263.867 113.821C265.658 114.829 267.445 115.841 269.223 116.869C271.002 117.895 272.779 118.923 274.547 119.968L277.202 121.53L279.846 123.109C279.96 123.178 280.043 123.291 280.075 123.423C280.107 123.555 280.087 123.697 280.018 123.817L280.016 123.819C279.271 125.115 278.537 126.416 277.781 127.705L277.778 127.711C277.742 127.771 277.696 127.824 277.64 127.867C277.585 127.91 277.523 127.941 277.456 127.96C277.39 127.978 277.321 127.983 277.253 127.975C277.186 127.966 277.121 127.944 277.063 127.91L277.052 127.903C275.182 126.743 273.3 125.6 271.439 124.425C269.574 123.255 267.707 122.089 265.855 120.899C263.995 119.72 262.149 118.52 260.304 117.319L258.924 116.411C258.692 116.257 258.466 116.114 258.231 115.952C257.874 115.7 257.591 115.356 257.41 114.953C257.229 114.55 257.157 114.104 257.2 113.657C257.231 113.369 257.31 113.086 257.432 112.821L257.779 112.041C257.612 112.582 257.349 113.111 257.351 113.662C257.339 114.207 257.513 114.733 257.844 115.151C258.006 115.353 258.201 115.525 258.422 115.658C258.649 115.794 258.897 115.93 259.134 116.067L260.57 116.883C262.478 117.98 264.387 119.079 266.282 120.199C268.184 121.308 270.071 122.44 271.961 123.569C273.854 124.693 275.727 125.849 277.611 126.987L276.882 127.186C277.62 125.887 278.38 124.6 279.129 123.307L279.3 124.017L276.668 122.418L274.046 120.801C272.296 119.727 270.556 118.636 268.818 117.542C267.078 116.451 265.348 115.344 263.621 114.232C261.895 113.118 260.173 111.996 258.468 110.848Z" fill="#1A1A1A"/>
<path d="M268.417 101.185C267.58 102.801 266.733 104.411 265.868 106.011C265.012 107.616 264.135 109.209 263.265 110.805L263.154 110.326L266.84 112.555L270.511 114.808C271.736 115.557 272.955 116.314 274.17 117.08L277.819 119.367L277.08 119.563L279.853 114.799L282.655 110.053L282.799 110.672L279.384 108.458C278.245 107.722 277.116 106.97 275.983 106.223C274.848 105.479 273.726 104.716 272.598 103.962C271.474 103.201 270.354 102.434 269.238 101.659C270.425 102.319 271.605 102.99 272.782 103.665C273.955 104.348 275.133 105.021 276.3 105.713C277.468 106.403 278.64 107.087 279.801 107.787L283.289 109.883C283.388 109.942 283.459 110.038 283.487 110.152C283.515 110.266 283.498 110.387 283.44 110.491L283.434 110.502L280.724 115.302L277.985 120.085C277.914 120.209 277.798 120.3 277.663 120.339C277.529 120.378 277.386 120.362 277.266 120.293C277.26 120.29 277.252 120.285 277.246 120.281L273.61 117.972C272.398 117.203 271.189 116.428 269.984 115.648L266.37 113.304L262.771 110.936L262.759 110.928C262.685 110.88 262.634 110.803 262.615 110.715C262.597 110.627 262.614 110.535 262.661 110.457C263.609 108.905 264.55 107.349 265.511 105.805C266.464 104.256 267.436 102.718 268.417 101.185Z" fill="#1A1A1A"/>
</g>
<defs>
<clipPath id="clip0_270_2499">
<rect width="40.2038" height="33.5032" fill="white" transform="translate(267.038 152.437) rotate(-17.4289)"/>
</clipPath>
<clipPath id="clip1_270_2499">
<rect width="25.1576" height="20.9646" fill="white" transform="translate(266.211 97.4365) rotate(30)"/>
</clipPath>
</defs>
</svg>
