<svg  viewBox="0 0 16 16" fill="none" xmlns="http://www.w3.org/2000/svg">
<path d="M13.7874 2.82483C13.2907 2.22256 12.9005 2.37248 12.9005 2.37248C12.9005 2.37248 12.1379 2.67719 11.7589 2.82067C11.3798 2.96414 10.9309 2.83158 10.9309 2.83158L10.4306 2.53275C10.4306 2.53275 10.0905 2.20171 10.0241 1.80301C9.96901 1.39787 9.84104 0.582704 9.84104 0.582704C9.84104 0.582704 9.7859 0.177554 9.01745 0.0335438C8.249 -0.110466 8.05822 0.255835 8.05822 0.255835C8.05822 0.255835 7.67016 0.97714 7.4794 1.34343C7.28864 1.70973 6.86027 1.89677 6.86027 1.89677L6.29311 1.99819C6.29311 1.99819 5.8274 1.9657 5.51992 1.69117L4.59747 0.867592C4.59747 0.867592 4.28998 0.593055 3.61956 0.980125C2.94913 1.3672 3.03314 1.77075 3.03314 1.77075L3.28516 2.98141C3.36917 3.38497 3.16445 3.80451 3.16445 3.80451L2.79304 4.24498C2.79304 4.24498 2.41688 4.52242 2.00427 4.50449C1.59166 4.48655 0.772966 4.46196 0.772966 4.46196C0.772966 4.46196 0.360352 4.44403 0.100842 5.18153C-0.158668 5.91903 0.164635 6.16935 0.164635 6.16935C0.164635 6.16935 0.806603 6.68776 1.12991 6.93808C1.45321 7.18841 1.55867 7.65492 1.55867 7.65492L1.56732 8.23761C1.56732 8.23761 1.45762 8.69271 1.14386 8.94921C0.830106 9.20572 0.184882 9.71385 0.184882 9.71385C0.184882 9.71385 -0.128882 9.97034 0.133186 10.7081C0.406419 11.4394 0.805972 11.4347 0.805972 11.4347C0.805972 11.4347 1.62745 11.4125 2.02701 11.4078C2.42657 11.4031 2.80949 11.6793 2.80949 11.6793L3.18597 12.125C3.18597 12.125 3.39852 12.5447 3.32047 12.9515C3.24241 13.3582 3.07979 14.1603 3.07979 14.1603C3.07979 14.1603 3.00174 14.567 3.67624 14.9611C4.35074 15.3553 4.65798 15.0875 4.65798 15.0875C4.65798 15.0875 5.26594 14.5406 5.57316 14.2728C5.88038 14.005 6.34235 13.9794 6.34235 13.9794L6.91147 14.0878C6.91147 14.0878 7.33533 14.2801 7.53296 14.6481C7.73058 15.0162 8.1193 15.7411 8.1193 15.7411C8.1193 15.7411 8.31693 16.1092 9.08432 15.9675C9.84707 15.8436 9.90742 15.4321 9.90742 15.4321C9.90742 15.4321 10.017 14.6154 10.0838 14.2151C10.1442 13.8036 10.4831 13.4874 10.4831 13.4874L10.9859 13.1971C10.9859 13.1971 11.4357 13.073 11.8158 13.2152C12.2024 13.3687 12.9578 13.6709 12.9578 13.6709C12.9578 13.6709 13.3444 13.8244 13.8331 13.2258C14.3219 12.6272 14.1196 12.2769 14.1196 12.2769C14.1196 12.2769 13.6862 11.5778 13.4662 11.2226C13.2462 10.8674 13.2917 10.4042 13.2917 10.4042L13.4823 9.85713C13.4823 9.85713 13.7355 9.46988 14.121 9.3377C14.5066 9.20552 15.2842 8.95248 15.2842 8.95248C15.2842 8.95248 15.6697 8.8203 15.6656 8.03909C15.6615 7.25789 15.2703 7.12213 15.2703 7.12213C15.2703 7.12213 14.4943 6.8619 14.1031 6.72615C13.7118 6.5904 13.4546 6.19645 13.4546 6.19645L13.2569 5.64758C13.2569 5.64758 13.198 5.18432 13.413 4.83417C13.6279 4.48402 14.0468 3.79017 14.0468 3.79017C14.0468 3.79017 14.2841 3.42708 13.7874 2.82483ZM4.81699 4.08618L6.14151 6.38031C5.54661 6.9498 5.32346 7.80192 5.56041 8.59936L3.2922 9.9089C2.38219 7.84242 3.01913 5.4104 4.81699 4.08618ZM9.6193 12.404C7.57338 13.2989 5.14865 12.6343 3.81417 10.8131L6.08237 9.50356C6.65453 10.1075 7.50406 10.3403 8.29469 10.1098L9.6193 12.404ZM8.25231 9.00413C7.69363 9.32668 6.98569 9.13267 6.65945 8.56761C6.33321 8.00255 6.51916 7.29245 7.07784 6.9699C7.63652 6.64735 8.34446 6.84136 8.6707 7.40642C8.99694 7.97148 8.81098 8.68158 8.25231 9.00413ZM10.5132 11.8879L9.18867 9.59378C9.78357 9.02428 10.0067 8.17216 9.76977 7.37472L12.038 6.06518C12.948 8.13166 12.3111 10.5637 10.5132 11.8879ZM9.24775 6.47056C8.67559 5.86663 7.82606 5.63382 7.03544 5.86428L5.71092 3.57015C7.75684 2.67525 10.175 3.32839 11.516 5.16104L9.24775 6.47056Z" fill="currentColor"/>
</svg>
