<svg  viewBox="0 0 16 16" fill="none" xmlns="http://www.w3.org/2000/svg">
<path d="M15.7292 2.43471C16.0132 2.1507 16.0132 1.69021 15.7292 1.40619C15.4451 1.12218 14.9847 1.12218 14.7006 1.4062L7.89337 8.21347L6.29769 6.1865C6.04924 5.8709 5.59198 5.81647 5.27638 6.06492C4.96078 6.31337 4.90634 6.77062 5.15479 7.08622L7.25707 9.7567C7.38565 9.92003 7.57796 10.0205 7.78546 10.0328C7.99295 10.0451 8.1958 9.96808 8.34278 9.8211L15.7292 2.43471Z" fill="#278E37"/>
<path d="M0 8C0 3.58172 3.58172 0 8 0C9.20907 0 10.3574 0.268712 11.3868 0.750355C11.7506 0.920575 11.9076 1.35349 11.7373 1.7173C11.5671 2.08111 11.1342 2.23805 10.7704 2.06783C9.92993 1.67459 8.99166 1.45455 8 1.45455C4.38505 1.45455 1.45455 4.38505 1.45455 8C1.45455 11.6149 4.38505 14.5455 8 14.5455C11.6149 14.5455 14.5455 11.6149 14.5455 8C14.5455 7.43382 14.4738 6.88552 14.3393 6.36307C14.2392 5.97408 14.4734 5.57759 14.8624 5.47749C15.2514 5.37739 15.6479 5.61158 15.748 6.00057C15.9126 6.64043 16 7.31051 16 8C16 12.4183 12.4183 16 8 16C3.58172 16 0 12.4183 0 8Z" fill="currentColor"/>
<path d="M15.7292 2.43471C16.0132 2.1507 16.0132 1.69021 15.7292 1.40619C15.4451 1.12218 14.9847 1.12218 14.7006 1.4062L7.89337 8.21347L6.29769 6.1865C6.04924 5.8709 5.59198 5.81647 5.27638 6.06492C4.96078 6.31337 4.90634 6.77062 5.15479 7.08622L7.25707 9.7567C7.38565 9.92003 7.57796 10.0205 7.78546 10.0328C7.99295 10.0451 8.1958 9.96808 8.34278 9.8211L15.7292 2.43471Z" fill="currentColor"/>
</svg>
