<svg viewBox="0 0 16 16" fill="none" xmlns="http://www.w3.org/2000/svg">
<path d="M8.94126 12.235C8.94126 11.7152 8.51989 11.2939 8.0001 11.2939C7.48031 11.2939 7.05893 11.7152 7.05893 12.235V15.0585C7.05893 15.5783 7.48031 15.9997 8.0001 15.9997C8.51989 15.9997 8.94126 15.5783 8.94126 15.0585V12.235Z" fill="currentColor"/>
<path d="M11.6575 10.3272C11.29 9.95964 10.6941 9.95964 10.3265 10.3272C9.95899 10.6947 9.95899 11.2906 10.3265 11.6582L12.3242 13.6558C12.6917 14.0233 13.2876 14.0233 13.6552 13.6558C14.0227 13.2882 14.0227 12.6923 13.6552 12.3248L11.6575 10.3272Z" fill="currentColor"/>
<path d="M12.2353 7.05867C11.7155 7.05867 11.2942 7.48004 11.2942 7.99983C11.2942 8.51961 11.7155 8.94098 12.2353 8.94098H15.0588C15.5786 8.94098 16 8.51961 16 7.99983C16 7.48004 15.5786 7.05867 15.0588 7.05867H12.2353Z" fill="currentColor"/>
<path d="M5.67198 10.3272C6.03952 10.6947 6.03952 11.2906 5.67198 11.6582L3.67435 13.6558C3.3068 14.0233 2.71089 14.0233 2.34334 13.6558C1.9758 13.2882 1.9758 12.6923 2.34334 12.3248L4.34097 10.3272C4.70852 9.95964 5.30443 9.95964 5.67198 10.3272Z" fill="currentColor"/>
<path d="M11.6575 10.3272C11.29 9.95964 10.6941 9.95964 10.3265 10.3272C9.95899 10.6947 9.95899 11.2906 10.3265 11.6582L12.3242 13.6558C12.6917 14.0233 13.2876 14.0233 13.6552 13.6558C14.0227 13.2882 14.0227 12.6923 13.6552 12.3248L11.6575 10.3272Z" fill="currentColor"/>
<path d="M12.2353 7.05867C11.7155 7.05867 11.2942 7.48004 11.2942 7.99983C11.2942 8.51961 11.7155 8.94098 12.2353 8.94098H15.0588C15.5786 8.94098 16 8.51961 16 7.99983C16 7.48004 15.5786 7.05867 15.0588 7.05867H12.2353Z" fill="currentColor"/>
<path d="M7.9999 0C8.51969 0 8.94107 0.421371 8.94107 0.941157V3.76463C8.94107 4.28442 8.51969 4.70579 7.9999 4.70579C7.48011 4.70579 7.05874 4.28442 7.05874 3.76463V0.941157C7.05874 0.421371 7.48011 0 7.9999 0Z" fill="currentColor"/>
<path d="M2.34315 2.34382C2.7107 1.97627 3.30661 1.97627 3.67416 2.34382L5.67178 4.34143C6.03933 4.70897 6.03933 5.30488 5.67178 5.67242C5.30423 6.03997 4.70832 6.03997 4.34077 5.67242L2.34315 3.67482C1.9756 3.30727 1.9756 2.71136 2.34315 2.34382Z" fill="currentColor"/>
<path d="M0 7.99984C0 7.48005 0.421374 7.05868 0.941165 7.05868H3.76466C4.28445 7.05868 4.70582 7.48005 4.70582 7.99984C4.70582 8.51963 4.28445 8.941 3.76466 8.941H0.941165C0.421374 8.941 0 8.51963 0 7.99984Z" fill="currentColor"/>
<path d="M13.655 3.67482C14.0225 3.30727 14.0225 2.71137 13.655 2.34382C13.2874 1.97627 12.6915 1.97627 12.324 2.34382L10.3263 4.34143C9.95879 4.70897 9.95879 5.30488 10.3263 5.67242C10.6939 6.03997 11.2898 6.03997 11.6573 5.67242L13.655 3.67482Z" fill="currentColor"/>
</svg>
