<svg viewBox="0 0 14 18" fill="none" xmlns="http://www.w3.org/2000/svg">
<path fill-rule="evenodd" clip-rule="evenodd" d="M12.8365 5.56727C13.1178 3.76785 12.1155 0.888601 9.77814 1.0859C9.748 1.0873 9.71853 1.09494 9.69172 1.10831C9.6649 1.12169 9.64138 1.14048 9.62274 1.16342C8.26022 0.669167 6.56283 1.03837 5.46043 1.91181C4.61764 2.57956 4.20136 3.52416 3.85427 4.49776C3.57105 5.29221 3.29504 6.20704 3.68745 7.01402C3.97023 7.59557 4.52138 7.95454 5.11452 8.21365C4.76555 8.28584 4.4242 8.389 4.09481 8.52183C3.94381 8.5835 3.79588 8.65185 3.65103 8.72691C3.59898 8.75386 3.53616 8.79842 3.46974 8.84554L3.46969 8.84558C3.4068 8.89019 3.34068 8.93709 3.27741 8.9735C3.11154 8.79802 2.92419 8.63737 2.73702 8.47689L2.73695 8.47684C2.31225 8.11269 1.88854 7.7494 1.71922 7.21561C1.62111 6.93849 1.11689 7.03718 1.20329 7.33806C1.23977 7.46366 1.28978 7.58522 1.3525 7.70073C1.48782 8.00449 1.65576 8.29365 1.85356 8.56346L1.8677 8.58257L1.86775 8.58264C2.09564 8.89053 2.41901 9.32738 2.78067 9.48253C2.88509 9.52803 3.00181 9.5401 3.11382 9.517C3.15474 9.53386 3.19884 9.54231 3.24332 9.5418C3.28779 9.54129 3.33167 9.53183 3.37217 9.51402C3.48082 9.47056 3.59291 9.42785 3.70655 9.38456C4.20557 9.19443 4.73444 8.99293 5.13245 8.66631L5.15176 8.66162C5.1565 8.66045 5.16125 8.65929 5.166 8.65814C5.16957 8.65728 5.17315 8.65644 5.17674 8.65563C5.07433 8.84461 5.01891 9.05411 5.0149 9.26744C4.99542 9.3248 4.97556 9.38163 4.95367 9.43641C4.81486 9.7838 4.66312 10.1261 4.49323 10.4604C4.13581 11.1568 3.70992 11.8183 3.22145 12.4358C3.00592 12.3187 2.8018 12.183 2.61158 12.0302C2.56689 11.9909 2.52432 11.9517 2.48267 11.9133C2.28568 11.7318 2.10899 11.569 1.82329 11.4988C1.78567 11.4884 1.74613 11.4861 1.70748 11.4921C1.66883 11.498 1.632 11.5121 1.5996 11.5334C1.56721 11.5546 1.54003 11.5825 1.52 11.615C1.49996 11.6475 1.48755 11.6839 1.48365 11.7216C1.46666 11.8837 1.3848 12.0344 1.30417 12.1828L1.30408 12.1829C1.26449 12.2558 1.2252 12.3281 1.19403 12.401C1.09776 12.6295 1.0332 12.8693 1.00207 13.1143C0.948922 13.511 0.943734 13.9829 1.16947 14.3301C1.27377 14.4905 1.56674 14.4292 1.57564 14.2354C1.58393 14.0549 1.57066 13.8842 1.55756 13.7159V13.7158C1.53484 13.4237 1.51267 13.1386 1.60464 12.8209C1.65085 12.6613 1.72259 12.5138 1.79387 12.3673L1.79392 12.3672C1.84345 12.2654 1.89275 12.1641 1.93311 12.0594C2.05981 12.1425 2.17976 12.255 2.2971 12.365L2.29715 12.365C2.41202 12.4727 2.52438 12.578 2.63813 12.6512C2.89073 12.8136 3.14398 12.9475 3.44422 12.971C3.96361 13.5289 4.56361 14.0114 5.22566 14.4034C5.57881 14.6119 5.94775 14.7943 6.32933 14.9489C6.5338 15.0316 6.7416 15.1056 6.95271 15.1711C7.00266 15.1865 7.06065 15.2 7.12161 15.2136C7.10427 15.2416 7.09688 15.2743 7.10056 15.3068C7.10425 15.3392 7.11881 15.3696 7.14202 15.3933C7.50198 15.8612 7.98236 16.2603 8.44615 16.6457L8.4464 16.6459C8.53538 16.7198 8.62375 16.7933 8.71053 16.8666C8.74946 16.9 8.79705 16.9226 8.84823 16.932C8.89941 16.9413 8.95224 16.9371 9.00111 16.9196C9.04998 16.9022 9.09303 16.8723 9.1257 16.8331C9.15835 16.7938 9.17938 16.7467 9.18653 16.6968C9.2186 16.4663 9.47219 16.2062 9.67873 15.9945C9.74916 15.9222 9.81412 15.8556 9.86295 15.7977L10.2158 15.3792C10.2339 15.3577 10.2629 15.3156 10.2969 15.266L10.2971 15.2657C10.367 15.1641 10.458 15.0316 10.5205 14.9827C10.5811 14.981 10.6389 14.9576 10.6827 14.917C10.7264 14.8764 10.753 14.8215 10.7573 14.763L10.7598 14.7327C10.7715 14.5888 10.6083 14.4967 10.4812 14.4929C10.1616 14.4833 9.91195 14.8384 9.71224 15.1225C9.65401 15.2054 9.60001 15.2822 9.54978 15.3421C9.47421 15.4323 9.38941 15.5237 9.30258 15.6173C9.11738 15.817 8.92299 16.0266 8.78953 16.255C8.68957 16.166 8.59027 16.0759 8.49091 15.9856L8.49071 15.9855C8.34174 15.8502 8.19264 15.7148 8.04089 15.5832C8.30384 15.167 8.51085 14.7092 8.71565 14.2562C8.79468 14.0815 8.87338 13.9074 8.95483 13.7368C9.2869 13.0411 9.61528 12.3439 9.93998 11.645L9.96419 11.5924L9.97891 11.5602C9.99043 11.535 10.0019 11.5098 10.0136 11.4846C10.4955 11.3747 10.9739 11.2495 11.4522 11.1243L11.4523 11.1243C11.7403 11.0489 12.0282 10.9736 12.3169 10.9016C12.3536 10.895 12.3881 10.8799 12.4175 10.8577C12.447 10.8355 12.4704 10.8067 12.486 10.7739C12.5015 10.741 12.5086 10.705 12.5067 10.669C12.5049 10.6329 12.4941 10.5978 12.4752 10.5666C12.2342 10.1775 12.0242 9.7711 11.8471 9.35109C11.8087 9.259 11.7767 9.16346 11.7447 9.06801L11.7447 9.06793C11.6681 8.8395 11.5918 8.61163 11.4287 8.43299C11.5051 8.26401 11.5785 8.09415 11.6449 7.92298C12.282 7.27419 12.6979 6.45195 12.8365 5.56727ZM9.62769 11.0429C9.26091 11.109 8.88185 11.0573 8.54826 10.8957C8.25106 10.7495 7.96258 11.1217 8.26608 11.3113C8.59555 11.5133 8.98345 11.6075 9.37251 11.58C9.09992 12.1517 8.8272 12.7234 8.55435 13.295C8.45285 13.5073 8.34362 13.72 8.23385 13.9338C8.07053 14.2519 7.90602 14.5723 7.76402 14.8972C7.58509 14.8298 7.40202 14.7732 7.21586 14.7277C6.7515 14.5894 6.30181 14.4086 5.8729 14.1879C5.08377 13.7765 4.37334 13.2374 3.77241 12.5941C4.21943 12.0031 4.61269 11.3758 4.9478 10.7192C5.13128 10.3596 5.29498 9.99097 5.43824 9.61473C5.45538 9.56943 5.47315 9.52419 5.49094 9.47894C5.59185 9.22216 5.69294 8.96491 5.67746 8.69308C5.70495 8.61522 5.72805 8.53597 5.74667 8.45569L5.77219 8.46444C5.79533 8.47238 5.81846 8.48032 5.84139 8.48802C6.83456 8.82114 7.87624 9.15553 8.94065 9.12108C9.58635 9.09987 10.2159 8.9201 10.7699 8.59868L10.7479 8.64836C10.6661 8.83341 10.5845 9.01796 10.4995 9.19913C10.211 9.81462 9.92035 10.4292 9.62769 11.0429ZM11.863 10.5349C11.6843 10.5768 11.5055 10.6183 11.3266 10.6598C11.0009 10.7354 10.6751 10.811 10.35 10.8891L10.2789 10.9063C10.4746 10.4805 10.67 10.0545 10.8651 9.62833C10.9522 9.43676 11.0447 9.24448 11.1376 9.05128L11.1381 9.05036L11.1519 9.02168C11.2242 9.22433 11.307 9.42333 11.4 9.61792C11.537 9.93152 11.6916 10.2376 11.863 10.5349ZM11.4085 7.31874C11.3555 7.40482 11.3055 7.49282 11.2568 7.58171C10.7444 8.12391 10.0608 8.48668 9.31266 8.61335C8.39787 8.76388 7.46874 8.52371 6.6024 8.25721C6.52418 8.23315 6.44443 8.20921 6.36369 8.18497C5.67153 7.97722 4.90659 7.74762 4.41169 7.23168C3.79241 6.58606 3.99098 5.68528 4.24925 4.9327C4.53122 4.11112 4.84921 3.24295 5.46848 2.59803C6.69889 1.31664 8.59021 1.18108 10.1944 1.79541C10.2205 1.80701 10.2494 1.81148 10.278 1.80835C10.3066 1.80522 10.3338 1.79461 10.3566 1.77766C10.3794 1.7607 10.397 1.73806 10.4075 1.71215C10.4179 1.68624 10.4209 1.65806 10.4161 1.63063C11.8346 2.0312 12.4384 3.78478 12.3424 5.13236C12.2877 5.89269 12.013 6.6228 11.5497 7.23928C11.5209 7.23896 11.4926 7.24617 11.4678 7.26016C11.4429 7.27415 11.4224 7.2944 11.4085 7.31874ZM7.39774 4.13817C7.39774 4.34755 7.28119 4.31872 7.10742 4.27575C7.01955 4.25401 6.91705 4.22866 6.80759 4.22866C6.48165 4.22866 6.21744 4.13817 6.21744 3.82292C6.21744 3.6159 6.34945 3.58408 6.52052 3.54283C6.60996 3.52127 6.71008 3.49713 6.80759 3.44404C7.07933 3.29608 7.39774 3.82293 7.39774 4.13817ZM9.53082 4.75036C9.24362 4.91823 8.92548 4.93463 8.92548 4.66941C8.92548 4.4042 9.25208 3.80723 9.53082 3.90831C9.82214 4.01395 10.1361 4.30257 10.1361 4.56779C10.1361 4.63133 10.1362 4.65459 10.1278 4.65809C10.1014 4.66921 9.9912 4.48127 9.53082 4.75036Z" fill="currentColor"/>
<path d="M9.77814 1.0859L9.78739 1.28583L9.79496 1.28519L9.77814 1.0859ZM12.8365 5.56727L13.0341 5.59822L13.0341 5.59815L12.8365 5.56727ZM9.69172 1.10831L9.78098 1.28729L9.781 1.28728L9.69172 1.10831ZM9.62274 1.16342L9.55453 1.35143L9.68822 1.39993L9.77793 1.28958L9.62274 1.16342ZM5.46043 1.91181L5.33623 1.75505V1.75505L5.46043 1.91181ZM3.85427 4.49776L4.04266 4.56492L4.04266 4.56492L3.85427 4.49776ZM3.68745 7.01402L3.86731 6.92656L3.86731 6.92656L3.68745 7.01402ZM5.11452 8.21365L5.15503 8.40951L5.77085 8.28212L5.19458 8.03038L5.11452 8.21365ZM4.09481 8.52183L4.02002 8.33634L4.01919 8.33667L4.09481 8.52183ZM3.65103 8.72691L3.743 8.90451L3.74304 8.90449L3.65103 8.72691ZM3.46974 8.84554L3.3539 8.68224L3.34661 8.68793L3.46974 8.84554ZM3.46969 8.84558L3.58553 9.00887L3.59282 9.00318L3.46969 8.84558ZM3.27741 8.9735L3.13207 9.11089L3.24044 9.22554L3.37717 9.14685L3.27741 8.9735ZM2.73702 8.47689L2.86738 8.32485L2.85912 8.31849L2.73702 8.47689ZM2.73695 8.47684L2.6066 8.62887L2.61485 8.63524L2.73695 8.47684ZM1.71922 7.21561L1.90997 7.15511L1.90776 7.14886L1.71922 7.21561ZM1.20329 7.33806L1.01106 7.39326L1.01123 7.39383L1.20329 7.33806ZM1.3525 7.70073L1.53519 7.61934L1.532 7.61218L1.52826 7.60529L1.3525 7.70073ZM1.85356 8.56346L1.69226 8.68171L1.69278 8.68241L1.85356 8.56346ZM1.8677 8.58257L2.03891 8.47919L2.03406 8.47116L2.02848 8.46361L1.8677 8.58257ZM1.86775 8.58264L1.69653 8.68602L1.7014 8.69407L1.70699 8.70163L1.86775 8.58264ZM2.78067 9.48253L2.86055 9.29918L2.85952 9.29873L2.78067 9.48253ZM3.11382 9.517L3.19003 9.33209L3.1334 9.30875L3.07342 9.32112L3.11382 9.517ZM3.24332 9.5418L3.24101 9.34181H3.24101L3.24332 9.5418ZM3.37217 9.51402L3.29785 9.32822L3.29167 9.33094L3.37217 9.51402ZM3.70655 9.38456L3.63534 9.19766H3.63534L3.70655 9.38456ZM5.13245 8.66631L5.08529 8.47195L5.0409 8.48272L5.00558 8.5117L5.13245 8.66631ZM5.15176 8.66162L5.19893 8.85598L5.19966 8.8558L5.15176 8.66162ZM5.166 8.65814L5.21273 8.85261L5.21277 8.8526L5.166 8.65814ZM5.17674 8.65563L5.35258 8.75091L5.56301 8.36257L5.13234 8.46062L5.17674 8.65563ZM5.0149 9.26744L5.20427 9.33178L5.21428 9.30232L5.21487 9.2712L5.0149 9.26744ZM4.95367 9.43641L5.13939 9.51062L5.13939 9.51062L4.95367 9.43641ZM4.49323 10.4604L4.67117 10.5517L4.67153 10.551L4.49323 10.4604ZM3.22145 12.4358L3.12596 12.6116L3.27387 12.6919L3.37831 12.5599L3.22145 12.4358ZM2.61158 12.0302L2.47927 12.1805L2.48636 12.1862L2.61158 12.0302ZM2.48267 11.9133L2.61819 11.7662L2.61819 11.7662L2.48267 11.9133ZM1.82329 11.4988L1.76978 11.6917L1.77563 11.6931L1.82329 11.4988ZM1.70748 11.4921L1.67699 11.2944L1.67698 11.2944L1.70748 11.4921ZM1.5996 11.5334L1.48995 11.3661L1.48992 11.3661L1.5996 11.5334ZM1.52 11.615L1.69026 11.7199L1.69028 11.7199L1.52 11.615ZM1.48365 11.7216L1.68256 11.7424L1.68259 11.7422L1.48365 11.7216ZM1.30417 12.1828L1.12837 12.0872L1.12585 12.0922L1.30417 12.1828ZM1.30408 12.1829L1.47988 12.2785L1.48239 12.2735L1.30408 12.1829ZM1.19403 12.401L1.01014 12.3224L1.00972 12.3233L1.19403 12.401ZM1.00207 13.1143L1.2003 13.1408L1.20047 13.1395L1.00207 13.1143ZM1.16947 14.3301L1.00179 14.4391H1.00179L1.16947 14.3301ZM1.57564 14.2354L1.37585 14.2262L1.37585 14.2262L1.57564 14.2354ZM1.55756 13.7159H1.35756V13.7237L1.35817 13.7314L1.55756 13.7159ZM1.55756 13.7158H1.75756V13.7081L1.75696 13.7003L1.55756 13.7158ZM1.60464 12.8209L1.41253 12.7653L1.41253 12.7653L1.60464 12.8209ZM1.79387 12.3673L1.61497 12.2779L1.61402 12.2798L1.79387 12.3673ZM1.79392 12.3672L1.97281 12.4567L1.97376 12.4547L1.79392 12.3672ZM1.93311 12.0594L2.04277 11.8922L1.83565 11.7564L1.74652 11.9875L1.93311 12.0594ZM2.2971 12.365L2.45009 12.2361L2.44249 12.2271L2.43389 12.2191L2.2971 12.365ZM2.29715 12.365L2.14417 12.4939L2.15177 12.5029L2.16037 12.5109L2.29715 12.365ZM2.63813 12.6512L2.7463 12.4829L2.7463 12.4829L2.63813 12.6512ZM3.44422 12.971L3.59062 12.8347L3.53751 12.7776L3.4598 12.7716L3.44422 12.971ZM5.22566 14.4034L5.12376 14.5755L5.12398 14.5756L5.22566 14.4034ZM6.32933 14.9489L6.25419 15.1343L6.25439 15.1344L6.32933 14.9489ZM6.95271 15.1711L6.89349 15.3621L6.89357 15.3621L6.95271 15.1711ZM7.12161 15.2136L7.29164 15.3189L7.43981 15.0797L7.1652 15.0184L7.12161 15.2136ZM7.14202 15.3933L7.30054 15.2713L7.29325 15.2618L7.28487 15.2533L7.14202 15.3933ZM8.44615 16.6457L8.57689 16.4943L8.57396 16.4919L8.44615 16.6457ZM8.4464 16.6459L8.31565 16.7973L8.31859 16.7997L8.4464 16.6459ZM8.71053 16.8666L8.84092 16.7149L8.83959 16.7138L8.71053 16.8666ZM9.00111 16.9196L8.93394 16.7313L8.93394 16.7313L9.00111 16.9196ZM9.1257 16.8331L9.27942 16.961L9.27943 16.961L9.1257 16.8331ZM9.18653 16.6968L9.38451 16.7252L9.38463 16.7244L9.18653 16.6968ZM9.67873 15.9945L9.53555 15.8548L9.53555 15.8548L9.67873 15.9945ZM9.86295 15.7977L10.0159 15.9266L10.0159 15.9266L9.86295 15.7977ZM10.2158 15.3792L10.3687 15.5081L10.3687 15.5081L10.2158 15.3792ZM10.2969 15.266L10.4618 15.3793L10.4619 15.3792L10.2969 15.266ZM10.2971 15.2657L10.1323 15.1525L10.1322 15.1526L10.2971 15.2657ZM10.5205 14.9827L10.5149 14.7828L10.4491 14.7846L10.3972 14.8252L10.5205 14.9827ZM10.6827 14.917L10.8187 15.0636L10.8187 15.0636L10.6827 14.917ZM10.7573 14.763L10.558 14.7467L10.5578 14.7485L10.7573 14.763ZM10.7598 14.7327L10.9591 14.749L10.9591 14.749L10.7598 14.7327ZM10.4812 14.4929L10.4872 14.2929H10.4871L10.4812 14.4929ZM9.71224 15.1225L9.54863 15.0075L9.54862 15.0075L9.71224 15.1225ZM9.54978 15.3421L9.39648 15.2137H9.39648L9.54978 15.3421ZM9.30258 15.6173L9.15594 15.4813L9.15594 15.4813L9.30258 15.6173ZM8.78953 16.255L8.65659 16.4044L8.83902 16.5667L8.96221 16.3559L8.78953 16.255ZM8.49091 15.9856L8.62537 15.8376L8.62494 15.8372L8.49091 15.9856ZM8.49071 15.9855L8.35626 16.1335L8.35669 16.1339L8.49071 15.9855ZM8.04089 15.5832L7.87181 15.4764L7.78001 15.6217L7.90987 15.7343L8.04089 15.5832ZM8.71565 14.2562L8.53342 14.1738L8.53342 14.1738L8.71565 14.2562ZM8.95483 13.7368L8.77434 13.6506L8.77433 13.6507L8.95483 13.7368ZM9.93998 11.645L10.1214 11.7293L10.1217 11.7286L9.93998 11.645ZM9.96419 11.5924L10.1459 11.6759L10.1461 11.6756L9.96419 11.5924ZM9.97891 11.5602L10.1608 11.6434L10.1608 11.6433L9.97891 11.5602ZM10.0136 11.4846L9.96908 11.2896L9.87325 11.3115L9.83201 11.4007L10.0136 11.4846ZM11.4522 11.1243L11.4114 10.9283L11.4016 10.9308L11.4522 11.1243ZM11.4523 11.1243L11.4932 11.3203L11.5029 11.3178L11.4523 11.1243ZM12.3169 10.9016L12.2813 10.7043L12.2685 10.7076L12.3169 10.9016ZM12.4175 10.8577L12.297 10.6981L12.297 10.6981L12.4175 10.8577ZM12.486 10.7739L12.6668 10.8593L12.6668 10.8593L12.486 10.7739ZM12.5067 10.669L12.7065 10.6586L12.7065 10.6586L12.5067 10.669ZM12.4752 10.5666L12.6464 10.4631L12.6452 10.4613L12.4752 10.5666ZM11.8471 9.35109L11.6625 9.42806L11.6628 9.42881L11.8471 9.35109ZM11.7447 9.06801L11.5522 9.12301L11.5551 9.13156L11.7447 9.06801ZM11.7447 9.06793L11.9372 9.01293L11.9343 9.00438L11.7447 9.06793ZM11.4287 8.43299L11.2465 8.35054L11.1922 8.47056L11.281 8.56784L11.4287 8.43299ZM11.6449 7.92298L11.5022 7.78286L11.4734 7.81225L11.4585 7.85066L11.6449 7.92298ZM8.54826 10.8957L8.45996 11.0752L8.46108 11.0757L8.54826 10.8957ZM9.62769 11.0429L9.66316 11.2397L9.76407 11.2215L9.80821 11.129L9.62769 11.0429ZM8.26608 11.3113L8.16009 11.4809L8.16153 11.4818L8.26608 11.3113ZM9.37251 11.58L9.55304 11.666L9.70076 11.3562L9.35837 11.3805L9.37251 11.58ZM8.55435 13.295L8.73479 13.3812L8.73484 13.3811L8.55435 13.295ZM8.23385 13.9338L8.05593 13.8425L8.05593 13.8425L8.23385 13.9338ZM7.76402 14.8972L7.69352 15.0844L7.87123 15.1513L7.94728 14.9773L7.76402 14.8972ZM7.21586 14.7277L7.15871 14.9196L7.16838 14.922L7.21586 14.7277ZM5.8729 14.1879L5.78045 14.3652L5.78137 14.3657L5.8729 14.1879ZM3.77241 12.5941L3.6129 12.4734L3.51139 12.6076L3.62625 12.7306L3.77241 12.5941ZM4.9478 10.7192L5.12594 10.8101L5.12594 10.8101L4.9478 10.7192ZM5.43824 9.61473L5.62515 9.6859L5.62531 9.68549L5.43824 9.61473ZM5.49094 9.47894L5.67708 9.55209L5.67708 9.55209L5.49094 9.47894ZM5.67746 8.69308L5.48887 8.6265L5.4755 8.66436L5.47778 8.70445L5.67746 8.69308ZM5.74667 8.45569L5.81153 8.2665L5.60192 8.19465L5.55185 8.4105L5.74667 8.45569ZM5.77219 8.46444L5.83712 8.27527L5.83704 8.27524L5.77219 8.46444ZM5.84139 8.48802L5.77775 8.67762L5.77779 8.67764L5.84139 8.48802ZM8.94065 9.12108L8.94712 9.32098L8.94722 9.32097L8.94065 9.12108ZM10.7699 8.59868L10.9528 8.6796L11.2018 8.11695L10.6696 8.42568L10.7699 8.59868ZM10.7479 8.64836L10.565 8.56744L10.565 8.56746L10.7479 8.64836ZM10.4995 9.19913L10.6806 9.28403V9.28403L10.4995 9.19913ZM11.3266 10.6598L11.3718 10.8547H11.3718L11.3266 10.6598ZM11.863 10.5349L11.9087 10.7297L12.1708 10.6682L12.0363 10.435L11.863 10.5349ZM10.35 10.8891L10.3033 10.6946L10.303 10.6947L10.35 10.8891ZM10.2789 10.9063L10.0971 10.8227L9.9248 11.1976L10.3258 11.1007L10.2789 10.9063ZM10.8651 9.62833L11.0469 9.71157L11.0471 9.71115L10.8651 9.62833ZM11.1376 9.05128L11.3179 9.13798L11.3185 9.13665L11.1376 9.05128ZM11.1381 9.05036L10.9579 8.96362L10.9572 8.96498L11.1381 9.05036ZM11.1519 9.02168L11.3403 8.95448L11.1793 8.50343L10.9717 8.93495L11.1519 9.02168ZM11.4 9.61792L11.5833 9.53782L11.5804 9.53169L11.4 9.61792ZM11.2568 7.58171L11.4022 7.71908L11.4198 7.70037L11.4322 7.6778L11.2568 7.58171ZM11.4085 7.31874L11.5789 7.42355L11.582 7.41811L11.4085 7.31874ZM9.31266 8.61335L9.34514 8.81069L9.34605 8.81054L9.31266 8.61335ZM6.6024 8.25721L6.6612 8.06605L6.6612 8.06605L6.6024 8.25721ZM6.36369 8.18497L6.42118 7.99342L6.36369 8.18497ZM4.41169 7.23168L4.55603 7.09323L4.55602 7.09323L4.41169 7.23168ZM4.24925 4.9327L4.06008 4.86777L4.06008 4.86778L4.24925 4.9327ZM5.46848 2.59803L5.32421 2.4595L5.32421 2.4595L5.46848 2.59803ZM10.1944 1.79541L10.2755 1.61233L10.2659 1.60864L10.1944 1.79541ZM10.278 1.80835L10.2998 2.00716L10.2998 2.00716L10.278 1.80835ZM10.3566 1.77766L10.4759 1.93819L10.4759 1.93817L10.3566 1.77766ZM10.4075 1.71215L10.2221 1.63708L10.2221 1.63713L10.4075 1.71215ZM10.4161 1.63063L10.4704 1.43816L10.1637 1.35154L10.2191 1.66543L10.4161 1.63063ZM12.3424 5.13236L12.5419 5.14672L12.5419 5.14657L12.3424 5.13236ZM11.5497 7.23928L11.5475 7.43927L11.6487 7.44041L11.7096 7.35944L11.5497 7.23928ZM11.4678 7.26016L11.5658 7.43448L11.5658 7.43448L11.4678 7.26016ZM7.10742 4.27575L7.0594 4.4699L7.0594 4.4699L7.10742 4.27575ZM6.52052 3.54283L6.47365 3.3484L6.47365 3.3484L6.52052 3.54283ZM6.80759 3.44404L6.90322 3.61969L6.90323 3.61969L6.80759 3.44404ZM9.53082 4.75036L9.42989 4.57769L9.42989 4.5777L9.53082 4.75036ZM9.53082 3.90831L9.46263 4.09633H9.46264L9.53082 3.90831ZM10.1278 4.65809L10.2055 4.84241L10.2055 4.84241L10.1278 4.65809ZM9.79496 1.28519C10.8606 1.19524 11.6313 1.79905 12.1142 2.67442C12.6002 3.55533 12.7728 4.6801 12.6389 5.53638L13.0341 5.59815C13.1815 4.65501 12.9936 3.44045 12.4644 2.48121C11.9322 1.51643 11.0331 0.779259 9.76132 0.886611L9.79496 1.28519ZM9.781 1.28728C9.78269 1.28644 9.78488 1.2858 9.78738 1.28569L9.7689 0.886115C9.71112 0.888788 9.65437 0.903442 9.60244 0.929348L9.781 1.28728ZM9.77793 1.28958C9.77837 1.28903 9.77931 1.28812 9.78098 1.28729L9.60246 0.929338C9.55049 0.955256 9.50439 0.991937 9.46754 1.03727L9.77793 1.28958ZM5.58463 2.06857C6.63939 1.23288 8.26491 0.883623 9.55453 1.35143L9.69094 0.975409C8.25552 0.454712 6.48627 0.843862 5.33623 1.75505L5.58463 2.06857ZM4.04266 4.56492C4.38826 3.59548 4.78932 2.6987 5.58463 2.06857L5.33623 1.75505C4.44596 2.46042 4.01445 3.45285 3.66588 4.4306L4.04266 4.56492ZM3.86731 6.92656C3.51641 6.20494 3.75587 5.36935 4.04266 4.56492L3.66589 4.4306C3.38622 5.21507 3.07368 6.20915 3.50758 7.10148L3.86731 6.92656ZM5.19458 8.03038C4.61627 7.77774 4.11877 7.44369 3.86731 6.92656L3.50758 7.10148C3.82169 7.74745 4.42649 8.13134 5.03446 8.39693L5.19458 8.03038ZM4.16961 8.70731C4.48787 8.57898 4.81774 8.47928 5.15503 8.40951L5.074 8.0178C4.71336 8.0924 4.36054 8.19903 4.02002 8.33634L4.16961 8.70731ZM3.74304 8.90449C3.88255 8.8322 4.025 8.76637 4.17043 8.70698L4.01919 8.33667C3.86262 8.40062 3.70922 8.47151 3.55902 8.54933L3.74304 8.90449ZM3.58545 9.00867C3.65617 8.9585 3.70614 8.92359 3.743 8.90451L3.55907 8.5493C3.49182 8.58413 3.41614 8.63835 3.35402 8.68241L3.58545 9.00867ZM3.59282 9.00318L3.59286 9.00314L3.34661 8.68793L3.34656 8.68797L3.59282 9.00318ZM3.37717 9.14685C3.45021 9.10482 3.52432 9.05203 3.58541 9.0087L3.35397 8.68245C3.28928 8.72835 3.23116 8.76937 3.17765 8.80016L3.37717 9.14685ZM2.60684 8.62872C2.79547 8.79045 2.97464 8.94433 3.13207 9.11089L3.42276 8.83612C3.24845 8.6517 3.05291 8.48429 2.86721 8.32506L2.60684 8.62872ZM2.61485 8.63524L2.61492 8.63529L2.85912 8.31849L2.85906 8.31843L2.61485 8.63524ZM1.52859 7.27609C1.71803 7.87331 2.19077 8.27198 2.60677 8.62867L2.86714 8.32501C2.43373 7.95339 2.05906 7.62549 1.90986 7.15514L1.52859 7.27609ZM1.39552 7.28285C1.3924 7.27196 1.39376 7.2689 1.39331 7.27133C1.39315 7.27222 1.39281 7.27333 1.39233 7.2744C1.39186 7.27542 1.39151 7.27583 1.39167 7.27563C1.39311 7.27377 1.40519 7.26188 1.43443 7.25555C1.46284 7.24939 1.4901 7.25258 1.50779 7.25999C1.52192 7.26591 1.5272 7.27249 1.53069 7.28236L1.90776 7.14886C1.81271 6.8804 1.5344 6.82459 1.3497 6.86462C1.25142 6.88593 1.14752 6.9378 1.07565 7.03041C0.99847 7.12987 0.972491 7.25894 1.01106 7.39326L1.39552 7.28285ZM1.52826 7.60529C1.47235 7.50232 1.42782 7.39405 1.39536 7.28228L1.01123 7.39383C1.05172 7.53328 1.10721 7.66813 1.17674 7.79617L1.52826 7.60529ZM2.01486 8.44521C1.82543 8.18682 1.66468 7.91001 1.53519 7.61934L1.16981 7.78212C1.31097 8.09896 1.48609 8.40048 1.69226 8.68171L2.01486 8.44521ZM2.02848 8.46361L2.01434 8.4445L1.69278 8.68241L1.70692 8.70152L2.02848 8.46361ZM2.03896 8.47927L2.03891 8.47919L1.69649 8.68594L1.69653 8.68602L2.03896 8.47927ZM2.85952 9.29873C2.71709 9.23763 2.56867 9.11386 2.42088 8.95407C2.27492 8.79625 2.14333 8.61879 2.0285 8.46365L1.70699 8.70163C1.82005 8.85438 1.9641 9.04929 2.12722 9.22566C2.2885 9.40005 2.48259 9.57229 2.70182 9.66634L2.85952 9.29873ZM3.07342 9.32112C3.00166 9.33592 2.92697 9.32811 2.86055 9.29918L2.70079 9.66589C2.84322 9.72794 3.00196 9.74428 3.15422 9.71287L3.07342 9.32112ZM3.24101 9.34181C3.22332 9.34202 3.20594 9.33864 3.19003 9.33209L3.0376 9.70191C3.10354 9.72908 3.17435 9.74261 3.24562 9.74178L3.24101 9.34181ZM3.29167 9.33094C3.27598 9.33784 3.2587 9.34161 3.24101 9.34181L3.24562 9.74178C3.31688 9.74096 3.38737 9.72581 3.45267 9.69711L3.29167 9.33094ZM3.63534 9.19766C3.52199 9.24085 3.40834 9.28415 3.29789 9.32833L3.44645 9.69972C3.5533 9.65697 3.66383 9.61486 3.77776 9.57145L3.63534 9.19766ZM5.00558 8.5117C4.63744 8.81381 4.14153 9.00481 3.63534 9.19766L3.77776 9.57145C4.26961 9.38406 4.83143 9.17206 5.25933 8.82091L5.00558 8.5117ZM5.1046 8.46726L5.08529 8.47195L5.17962 8.86067L5.19893 8.85598L5.1046 8.46726ZM5.11928 8.46368C5.11386 8.46498 5.10858 8.46628 5.10387 8.46744L5.19966 8.8558C5.20443 8.85463 5.20863 8.85359 5.21273 8.85261L5.11928 8.46368ZM5.13234 8.46062C5.12779 8.46165 5.12339 8.46269 5.11923 8.46369L5.21277 8.8526C5.21575 8.85188 5.21851 8.85123 5.22113 8.85064L5.13234 8.46062ZM5.21487 9.2712C5.21827 9.09011 5.2653 8.91198 5.35258 8.75091L5.00089 8.56034C4.88335 8.77725 4.81956 9.0181 4.81494 9.26368L5.21487 9.2712ZM5.13939 9.51062C5.16332 9.45072 5.18456 9.38979 5.20427 9.33178L4.82553 9.20311C4.80627 9.25981 4.78779 9.31253 4.76794 9.36221L5.13939 9.51062ZM4.67153 10.551C4.84459 10.2105 4.99876 9.86257 5.13939 9.51062L4.76795 9.3622C4.63096 9.70503 4.48165 10.0417 4.31494 10.3698L4.67153 10.551ZM3.37831 12.5599C3.87481 11.9323 4.30777 11.2598 4.67117 10.5517L4.3153 10.3691C3.96386 11.0538 3.54504 11.7044 3.0646 12.3118L3.37831 12.5599ZM2.48636 12.1862C2.68593 12.3464 2.90001 12.4888 3.12596 12.6116L3.31694 12.2601C3.11183 12.1486 2.91766 12.0195 2.7368 11.8743L2.48636 12.1862ZM2.34714 12.0604C2.38856 12.0985 2.43275 12.1393 2.47941 12.1803L2.74376 11.8801C2.70102 11.8425 2.66008 11.8048 2.61819 11.7662L2.34714 12.0604ZM1.77563 11.6931C2.0052 11.7494 2.14752 11.8764 2.34714 12.0604L2.61819 11.7662C2.42385 11.5871 2.21279 11.3885 1.87095 11.3046L1.77563 11.6931ZM1.73798 11.6897C1.74865 11.6881 1.75956 11.6887 1.76981 11.6916L1.87677 11.3061C1.81178 11.2881 1.74361 11.2841 1.67699 11.2944L1.73798 11.6897ZM1.70926 11.7006C1.71752 11.6952 1.72732 11.6914 1.73798 11.6897L1.67698 11.2944C1.61035 11.3047 1.54649 11.329 1.48995 11.3661L1.70926 11.7006ZM1.69028 11.7199C1.6947 11.7127 1.70105 11.706 1.70928 11.7006L1.48992 11.3661C1.43336 11.4032 1.38536 11.4522 1.34972 11.5101L1.69028 11.7199ZM1.68259 11.7422C1.68336 11.7347 1.68586 11.7271 1.69026 11.7199L1.34974 11.5101C1.31405 11.568 1.29173 11.6331 1.28471 11.701L1.68259 11.7422ZM1.47991 12.2782C1.55637 12.1375 1.66067 11.9513 1.68256 11.7424L1.28474 11.7007C1.27265 11.8161 1.21323 11.9312 1.12843 12.0873L1.47991 12.2782ZM1.48239 12.2735L1.48249 12.2733L1.12585 12.0922L1.12576 12.0924L1.48239 12.2735ZM1.37792 12.4797C1.40476 12.4169 1.43935 12.3529 1.47982 12.2784L1.12834 12.0875C1.08963 12.1587 1.04564 12.2394 1.01014 12.3224L1.37792 12.4797ZM1.20047 13.1395C1.2293 12.9127 1.28909 12.6905 1.37834 12.4787L1.00972 12.3233C0.90642 12.5685 0.837104 12.826 0.803665 13.089L1.20047 13.1395ZM1.33714 14.2211C1.15362 13.9388 1.14795 13.5316 1.2003 13.1408L0.803839 13.0877C0.74989 13.4905 0.733848 14.027 1.00179 14.4391L1.33714 14.2211ZM1.37585 14.2262C1.3759 14.2251 1.37633 14.2222 1.37789 14.2188C1.37936 14.2156 1.38092 14.2138 1.38132 14.2134C1.38147 14.2133 1.37654 14.2177 1.36477 14.2204C1.35315 14.223 1.34311 14.2218 1.33768 14.2201C1.33369 14.2188 1.33548 14.2185 1.33714 14.2211L1.00179 14.4391C1.11156 14.6079 1.30704 14.6431 1.45189 14.6108C1.59822 14.5781 1.76562 14.4583 1.77543 14.2446L1.37585 14.2262ZM1.35817 13.7314C1.37138 13.9013 1.38349 14.0599 1.37585 14.2262L1.77543 14.2446C1.78437 14.0498 1.76994 13.8672 1.75696 13.7004L1.35817 13.7314ZM1.35756 13.7158V13.7159H1.75756V13.7158H1.35756ZM1.41253 12.7653C1.30914 13.1224 1.33566 13.442 1.35817 13.7314L1.75696 13.7003C1.73403 13.4054 1.7162 13.1547 1.79675 12.8765L1.41253 12.7653ZM1.61402 12.2798C1.54393 12.4239 1.46428 12.5865 1.41253 12.7653L1.79675 12.8765C1.83742 12.7361 1.90125 12.6038 1.97372 12.4548L1.61402 12.2798ZM1.61503 12.2778L1.61498 12.2779L1.97276 12.4568L1.9728 12.4567L1.61503 12.2778ZM1.74652 11.9875C1.70971 12.0829 1.66424 12.1766 1.61407 12.2797L1.97376 12.4547C2.02265 12.3542 2.07578 12.2453 2.11971 12.1314L1.74652 11.9875ZM2.43389 12.2191C2.31939 12.1117 2.18663 11.9865 2.04277 11.8922L1.82346 12.2267C1.93299 12.2985 2.04012 12.3982 2.16032 12.5109L2.43389 12.2191ZM2.45013 12.2362L2.45009 12.2361L2.14412 12.4938L2.14417 12.4939L2.45013 12.2362ZM2.7463 12.4829C2.65091 12.4216 2.55241 12.3302 2.43393 12.2191L2.16037 12.5109C2.27163 12.6152 2.39785 12.7344 2.52996 12.8194L2.7463 12.4829ZM3.4598 12.7716C3.21094 12.7521 2.9925 12.6413 2.7463 12.4829L2.52996 12.8194C2.78897 12.9859 3.07701 13.1429 3.42865 13.1704L3.4598 12.7716ZM5.32755 14.2313C4.68183 13.849 4.09684 13.3785 3.59062 12.8347L3.29783 13.1072C3.83038 13.6793 4.4454 14.1738 5.12376 14.5755L5.32755 14.2313ZM6.40447 14.7636C6.03201 14.6126 5.67194 14.4346 5.32733 14.2312L5.12398 14.5756C5.48568 14.7892 5.8635 14.9759 6.25419 15.1343L6.40447 14.7636ZM7.01194 14.98C6.80612 14.9162 6.60356 14.8441 6.40427 14.7635L6.25439 15.1344C6.46403 15.2191 6.67708 15.295 6.89349 15.3621L7.01194 14.98ZM7.1652 15.0184C7.10378 15.0047 7.05312 14.9928 7.01186 14.98L6.89357 15.3621C6.95219 15.3803 7.01751 15.3953 7.07803 15.4088L7.1652 15.0184ZM7.29929 15.2842C7.30072 15.2968 7.29773 15.3091 7.29164 15.3189L6.95159 15.1083C6.91081 15.1741 6.89304 15.2518 6.90184 15.3293L7.29929 15.2842ZM7.28487 15.2533C7.2923 15.2609 7.29786 15.2716 7.29929 15.2842L6.90184 15.3293C6.91064 15.4068 6.94533 15.4783 6.99917 15.5332L7.28487 15.2533ZM8.57396 16.4919C8.10665 16.1036 7.6445 15.7184 7.30054 15.2713L6.9835 15.5152C7.35945 16.0039 7.85807 16.4171 8.31833 16.7995L8.57396 16.4919ZM8.57712 16.4945L8.57687 16.4943L8.31542 16.797L8.31567 16.7973L8.57712 16.4945ZM8.83959 16.7138C8.75208 16.6398 8.66308 16.5659 8.57421 16.4921L8.31859 16.7997C8.40768 16.8738 8.49542 16.9467 8.58148 17.0193L8.83959 16.7138ZM8.88418 16.7352C8.86743 16.7322 8.85255 16.7249 8.84092 16.7149L8.58015 17.0182C8.64637 17.0751 8.72668 17.1131 8.81228 17.1287L8.88418 16.7352ZM8.93394 16.7313C8.91821 16.7369 8.90094 16.7383 8.88418 16.7352L8.81228 17.1287C8.89788 17.1444 8.98627 17.1373 9.06828 17.108L8.93394 16.7313ZM8.97197 16.7051C8.96261 16.7164 8.94963 16.7257 8.93394 16.7313L9.06827 17.108C9.15033 17.0788 9.22346 17.0282 9.27942 16.961L8.97197 16.7051ZM8.98856 16.6684C8.98672 16.6812 8.98126 16.6939 8.97196 16.7051L9.27943 16.961C9.33544 16.8937 9.37203 16.8122 9.38451 16.7252L8.98856 16.6684ZM9.53555 15.8548C9.43388 15.9591 9.31054 16.0852 9.20912 16.2161C9.11094 16.3428 9.01197 16.5001 8.98844 16.6693L9.38463 16.7244C9.39316 16.663 9.43703 16.575 9.52529 16.4611C9.61031 16.3514 9.71704 16.2416 9.82191 16.1341L9.53555 15.8548ZM9.71006 15.6688C9.6669 15.72 9.60767 15.7809 9.53555 15.8548L9.82191 16.1341C9.89065 16.0636 9.96134 15.9913 10.0159 15.9266L9.71006 15.6688ZM10.0629 15.2503L9.71005 15.6688L10.0159 15.9266L10.3687 15.5081L10.0629 15.2503ZM10.1321 15.1528C10.0947 15.2072 10.0729 15.2384 10.0629 15.2503L10.3687 15.5081C10.395 15.477 10.4311 15.4239 10.4618 15.3793L10.1321 15.1528ZM10.1322 15.1526L10.132 15.1529L10.4619 15.3792L10.4621 15.3789L10.1322 15.1526ZM10.3972 14.8252C10.3432 14.8675 10.291 14.9322 10.252 14.9838C10.2095 15.04 10.1667 15.1024 10.1323 15.1525L10.462 15.379C10.4974 15.3274 10.535 15.2728 10.5711 15.2251C10.589 15.2014 10.6051 15.1813 10.6191 15.1655C10.626 15.1576 10.6317 15.1515 10.6364 15.147C10.6386 15.1447 10.6404 15.1431 10.6418 15.1419C10.6431 15.1407 10.6438 15.1402 10.6437 15.1402L10.3972 14.8252ZM10.5467 14.7704C10.5391 14.7774 10.5279 14.7824 10.5149 14.7828L10.526 15.1826C10.6343 15.1796 10.7387 15.1378 10.8187 15.0636L10.5467 14.7704ZM10.5578 14.7485C10.5573 14.7555 10.554 14.7635 10.5467 14.7704L10.8187 15.0636C10.8988 14.9893 10.9488 14.8875 10.9568 14.7775L10.5578 14.7485ZM10.5604 14.7164L10.558 14.7467L10.9566 14.7793L10.9591 14.749L10.5604 14.7164ZM10.4752 14.6928C10.485 14.6931 10.499 14.6953 10.5146 14.7007C10.5301 14.7061 10.5432 14.7132 10.5524 14.7201C10.5618 14.7272 10.5638 14.7314 10.5631 14.7301C10.5616 14.7274 10.56 14.7217 10.5604 14.7164L10.9591 14.749C10.9723 14.5879 10.8839 14.4689 10.7927 14.4004C10.7036 14.3334 10.5909 14.2961 10.4872 14.2929L10.4752 14.6928ZM9.87586 15.2375C9.97807 15.0921 10.0796 14.9488 10.1908 14.8414C10.303 14.7329 10.3951 14.6904 10.4752 14.6928L10.4871 14.2929C10.2476 14.2858 10.0552 14.4161 9.91274 14.5538C9.76927 14.6925 9.64612 14.8688 9.54863 15.0075L9.87586 15.2375ZM9.70307 15.4706C9.75991 15.4027 9.81918 15.3182 9.87586 15.2375L9.54862 15.0075C9.48884 15.0925 9.44012 15.1616 9.39648 15.2137L9.70307 15.4706ZM9.44921 15.7533C9.5353 15.6605 9.62368 15.5653 9.70307 15.4706L9.39648 15.2137C9.32475 15.2993 9.24351 15.3869 9.15594 15.4813L9.44921 15.7533ZM8.96221 16.3559C9.08256 16.1499 9.26075 15.9565 9.44921 15.7533L9.15594 15.4813C8.97401 15.6775 8.76342 15.9032 8.61685 16.1541L8.96221 16.3559ZM8.35646 16.1337C8.4557 16.2238 8.55574 16.3147 8.65659 16.4044L8.92247 16.1055C8.82339 16.0174 8.72485 15.9279 8.62537 15.8376L8.35646 16.1337ZM8.35669 16.1339L8.35689 16.1341L8.62494 15.8372L8.62473 15.837L8.35669 16.1339ZM7.90987 15.7343C8.05959 15.8641 8.20701 15.998 8.35626 16.1335L8.62516 15.8374C8.47648 15.7024 8.32568 15.5654 8.17192 15.4321L7.90987 15.7343ZM8.53342 14.1738C8.32758 14.6291 8.12606 15.0739 7.87181 15.4764L8.20998 15.69C8.48162 15.26 8.69412 14.7893 8.89789 14.3387L8.53342 14.1738ZM8.77433 13.6507C8.69184 13.8235 8.61229 13.9994 8.53342 14.1738L8.89789 14.3387C8.97706 14.1636 9.05491 13.9914 9.13532 13.823L8.77433 13.6507ZM9.7586 11.5607C9.43419 12.259 9.10611 12.9556 8.77434 13.6506L9.13532 13.823C9.46769 13.1267 9.79637 12.4288 10.1214 11.7293L9.7586 11.5607ZM9.78247 11.5088L9.75827 11.5615L10.1217 11.7286L10.1459 11.6759L9.78247 11.5088ZM9.79705 11.477L9.78232 11.5091L10.1461 11.6756L10.1608 11.6434L9.79705 11.477ZM9.83201 11.4007C9.82017 11.4263 9.80848 11.4519 9.79699 11.4771L10.1608 11.6433C10.1724 11.618 10.1837 11.5932 10.1951 11.5685L9.83201 11.4007ZM11.4016 10.9308C10.9228 11.0561 10.4474 11.1805 9.96908 11.2896L10.0581 11.6796C10.5436 11.5688 11.0251 11.4428 11.5029 11.3178L11.4016 10.9308ZM11.4115 10.9285L11.4115 10.9285L11.493 11.3201L11.4931 11.3201L11.4115 10.9285ZM12.2685 10.7076C11.9785 10.7799 11.6895 10.8555 11.4017 10.9308L11.5029 11.3178C11.7911 11.2424 12.0779 11.1673 12.3653 11.0957L12.2685 10.7076ZM12.297 10.6981C12.2929 10.7012 12.2876 10.7037 12.2814 10.7048L12.3523 11.0984C12.4196 11.0863 12.4833 11.0587 12.5381 11.0173L12.297 10.6981ZM12.3052 10.6884C12.3036 10.6916 12.3011 10.695 12.297 10.6981L12.5381 11.0173C12.5929 10.9759 12.6372 10.9219 12.6668 10.8593L12.3052 10.6884ZM12.307 10.6793C12.3072 10.6822 12.3066 10.6853 12.3051 10.6884L12.6668 10.8593C12.6964 10.7968 12.7101 10.7279 12.7065 10.6586L12.307 10.6793ZM12.3041 10.6701C12.306 10.6733 12.3069 10.6765 12.307 10.6794L12.7065 10.6586C12.7029 10.5893 12.6821 10.5223 12.6463 10.4631L12.3041 10.6701ZM11.6628 9.42881C11.844 9.85841 12.0587 10.274 12.3052 10.6719L12.6452 10.4613C12.4097 10.0809 12.2045 9.6838 12.0314 9.27337L11.6628 9.42881ZM11.5551 9.13156C11.5867 9.22582 11.6209 9.32823 11.6625 9.42806L12.0317 9.27412C11.9965 9.18976 11.9667 9.10109 11.9343 9.00445L11.5551 9.13156ZM11.5524 9.12287L11.5524 9.12295L11.937 9.01306L11.937 9.01298L11.5524 9.12287ZM11.281 8.56784C11.4108 8.71006 11.476 8.89572 11.555 9.13147L11.9343 9.00438C11.8602 8.78328 11.7727 8.51321 11.5764 8.29815L11.281 8.56784ZM11.4585 7.85066C11.3939 8.01722 11.3221 8.18349 11.2465 8.35054L11.6109 8.51544C11.6882 8.34453 11.7632 8.17107 11.8314 7.99531L11.4585 7.85066ZM12.6389 5.53631C12.5069 6.37909 12.1105 7.16335 11.5022 7.78286L11.7876 8.06311C12.4535 7.38504 12.8889 6.52481 13.0341 5.59822L12.6389 5.53631ZM8.46108 11.0757C8.83297 11.2558 9.25499 11.3133 9.66316 11.2397L9.59221 10.846C9.26683 10.9047 8.93073 10.8587 8.63543 10.7157L8.46108 11.0757ZM8.37206 11.1417C8.33468 11.1183 8.33596 11.1038 8.33698 11.1093C8.33747 11.112 8.33519 11.1069 8.34387 11.0949C8.35274 11.0827 8.36844 11.0707 8.3882 11.0654C8.40559 11.0607 8.42943 11.0602 8.45996 11.0752L8.63655 10.7163C8.3943 10.5971 8.14425 10.6886 8.01994 10.8602C7.95729 10.9467 7.92122 11.0611 7.94369 11.1823C7.9667 11.3064 8.04573 11.4095 8.16009 11.4809L8.37206 11.1417ZM9.35837 11.3805C9.01052 11.4051 8.66418 11.3208 8.37062 11.1408L8.16153 11.4818C8.52692 11.7059 8.95638 11.8099 9.38664 11.7795L9.35837 11.3805ZM8.73484 13.3811C9.0077 12.8095 9.28043 12.2378 9.55304 11.666L9.19198 11.4939C8.9194 12.0656 8.64669 12.6372 8.37385 13.2088L8.73484 13.3811ZM8.41176 14.0252C8.5213 13.8118 8.63186 13.5966 8.73479 13.3812L8.3739 13.2087C8.27384 13.418 8.16594 13.6282 8.05593 13.8425L8.41176 14.0252ZM7.94728 14.9773C8.08636 14.659 8.24795 14.3442 8.41177 14.0252L8.05593 13.8425C7.89312 14.1595 7.72568 14.4855 7.58075 14.8171L7.94728 14.9773ZM7.16838 14.922C7.34675 14.9656 7.52214 15.0198 7.69352 15.0844L7.83451 14.71C7.64805 14.6398 7.45729 14.5808 7.26334 14.5334L7.16838 14.922ZM5.78137 14.3657C6.22135 14.5922 6.68258 14.7776 7.15878 14.9194L7.27294 14.536C6.82042 14.4013 6.38227 14.2251 5.96444 14.01L5.78137 14.3657ZM3.62625 12.7306C4.24281 13.3907 4.97146 13.9435 5.78046 14.3652L5.96535 14.0105C5.19609 13.6095 4.50387 13.0842 3.91857 12.4575L3.62625 12.7306ZM4.76966 10.6282C4.43991 11.2744 4.05289 11.8917 3.6129 12.4734L3.93192 12.7147C4.38597 12.1144 4.78548 11.4772 5.12594 10.8101L4.76966 10.6282ZM5.25133 9.54356C5.11064 9.91305 4.94987 10.2751 4.76966 10.6282L5.12594 10.8101C5.31269 10.4441 5.47932 10.0689 5.62515 9.6859L5.25133 9.54356ZM5.3048 9.40578C5.28709 9.45084 5.26884 9.49727 5.25118 9.54397L5.62531 9.68549C5.64191 9.64159 5.65922 9.59754 5.67708 9.55209L5.3048 9.40578ZM5.47778 8.70445C5.49035 8.92503 5.40891 9.14087 5.3048 9.40579L5.67708 9.55209C5.7748 9.30344 5.89554 9.0048 5.87714 8.68171L5.47778 8.70445ZM5.55185 8.4105C5.53491 8.48353 5.51389 8.55564 5.48887 8.6265L5.86605 8.75966C5.89601 8.6748 5.9212 8.58841 5.9415 8.50089L5.55185 8.4105ZM5.83704 8.27524L5.81153 8.2665L5.68182 8.64488L5.70733 8.65363L5.83704 8.27524ZM5.90504 8.29841C5.88286 8.29097 5.86037 8.28325 5.83712 8.27527L5.70725 8.6536C5.73029 8.66151 5.75406 8.66967 5.77775 8.67762L5.90504 8.29841ZM8.93418 8.92119C7.91095 8.9543 6.90214 8.63285 5.90499 8.2984L5.77779 8.67764C6.76697 9.00942 7.84153 9.35675 8.94712 9.32098L8.93418 8.92119ZM10.6696 8.42568C10.1443 8.73038 9.54708 8.90105 8.93409 8.92119L8.94722 9.32097C9.62562 9.29869 10.2874 9.10982 10.8703 8.77168L10.6696 8.42568ZM10.9308 8.72928L10.9528 8.6796L10.587 8.51776L10.565 8.56744L10.9308 8.72928ZM10.6806 9.28403C10.7666 9.10053 10.8492 8.91396 10.9308 8.72926L10.565 8.56746C10.483 8.75286 10.4023 8.93538 10.3184 9.11423L10.6806 9.28403ZM9.80821 11.129C10.1011 10.5149 10.3919 9.89992 10.6806 9.28403L10.3184 9.11423C10.0301 9.72932 9.73964 10.3435 9.44716 10.9568L9.80821 11.129ZM11.3718 10.8547C11.5506 10.8132 11.7297 10.7716 11.9087 10.7297L11.8174 10.3402C11.6389 10.3821 11.4603 10.4235 11.2814 10.465L11.3718 10.8547ZM10.3967 11.0836C10.7209 11.0057 11.0459 10.9303 11.3718 10.8547L11.2814 10.465C10.9558 10.5406 10.6293 10.6163 10.3033 10.6946L10.3967 11.0836ZM10.3258 11.1007L10.397 11.0835L10.303 10.6947L10.2319 10.7119L10.3258 11.1007ZM10.6832 9.5451C10.4882 9.97113 10.2929 10.397 10.0971 10.8227L10.4606 10.9898C10.6564 10.5639 10.8518 10.1378 11.0469 9.71157L10.6832 9.5451ZM10.9574 8.96458C10.8646 9.15744 10.7712 9.35166 10.683 9.54552L11.0471 9.71115C11.1332 9.52186 11.2248 9.33153 11.3179 9.13798L10.9574 8.96458ZM10.9572 8.96498L10.9568 8.9659L11.3185 9.13665L11.3189 9.13573L10.9572 8.96498ZM10.9717 8.93495L10.9579 8.96363L11.3183 9.13709L11.3321 9.10841L10.9717 8.93495ZM11.5804 9.53169C11.4904 9.34329 11.4102 9.15064 11.3403 8.95448L10.9635 9.08888C11.0381 9.29802 11.1236 9.50337 11.2195 9.70416L11.5804 9.53169ZM12.0363 10.435C11.8685 10.1441 11.7173 9.84463 11.5832 9.53786L11.2167 9.69799C11.3567 10.0184 11.5146 10.3312 11.6898 10.6349L12.0363 10.435ZM11.4322 7.6778C11.48 7.59065 11.5282 7.50577 11.5788 7.4235L11.2381 7.21399C11.1828 7.30387 11.1311 7.39499 11.0814 7.48561L11.4322 7.6778ZM9.34605 8.81054C10.1362 8.67676 10.8594 8.29343 11.4022 7.71908L11.1114 7.44434C10.6294 7.95439 9.98533 8.29661 9.27927 8.41615L9.34605 8.81054ZM6.54359 8.44837C7.40971 8.7148 8.37944 8.96961 9.34514 8.81069L9.28019 8.416C8.4163 8.55816 7.52777 8.33262 6.6612 8.06605L6.54359 8.44837ZM6.30619 8.37653C6.38705 8.4008 6.46614 8.42454 6.54359 8.44837L6.6612 8.06605C6.58222 8.04175 6.50181 8.01762 6.42118 7.99342L6.30619 8.37653ZM4.26736 7.37012C4.80552 7.93118 5.62698 8.17267 6.30619 8.37653L6.42118 7.99342C5.71609 7.78178 5.00765 7.56407 4.55603 7.09323L4.26736 7.37012ZM4.06008 4.86778C3.92922 5.24908 3.80629 5.68711 3.8014 6.12004C3.79644 6.55878 3.91301 7.00071 4.26736 7.37012L4.55602 7.09323C4.29109 6.81703 4.19729 6.48576 4.20137 6.12456C4.20552 5.75754 4.311 5.36889 4.43842 4.99762L4.06008 4.86778ZM5.32421 2.4595C4.67017 3.14065 4.34059 4.05046 4.06008 4.86777L4.43841 4.99762C4.72185 4.17178 5.02826 3.34525 5.61274 2.73655L5.32421 2.4595ZM10.2659 1.60864C8.61168 0.975142 6.6268 1.10296 5.32421 2.4595L5.61274 2.73655C6.77099 1.53032 8.56874 1.38702 10.1228 1.98219L10.2659 1.60864ZM10.2563 1.60954C10.2626 1.60885 10.2691 1.60979 10.2754 1.61257L10.1133 1.97826C10.1719 2.00423 10.2363 2.01411 10.2998 2.00716L10.2563 1.60954ZM10.2373 1.61712C10.2433 1.61262 10.2499 1.61023 10.2562 1.60954L10.2998 2.00716C10.3633 2.00021 10.4242 1.9766 10.4759 1.93819L10.2373 1.61712ZM10.2221 1.63713C10.2256 1.62838 10.2312 1.62168 10.2373 1.61714L10.4759 1.93817C10.5276 1.89973 10.5683 1.84773 10.5929 1.78717L10.2221 1.63713ZM10.2191 1.66543C10.2174 1.65573 10.2185 1.64585 10.2221 1.63708L10.5928 1.78721C10.6174 1.72663 10.6244 1.66039 10.613 1.59584L10.2191 1.66543ZM12.5419 5.14657C12.5922 4.44068 12.4599 3.63024 12.1274 2.93961C11.7945 2.24819 11.2508 1.65853 10.4704 1.43816L10.3617 1.82311C10.9998 2.0033 11.4673 2.49071 11.767 3.11312C12.067 3.73632 12.1886 4.47646 12.143 5.11816L12.5419 5.14657ZM11.7096 7.35944C12.1957 6.71261 12.4844 5.94585 12.5419 5.14672L12.143 5.11801C12.0911 5.83952 11.8303 6.53299 11.3898 7.11912L11.7096 7.35944ZM11.5658 7.43448C11.5598 7.43785 11.5535 7.43934 11.5475 7.43927L11.552 7.0393C11.4884 7.03858 11.4254 7.0545 11.3697 7.08585L11.5658 7.43448ZM11.582 7.41811C11.5777 7.42565 11.5719 7.43107 11.5658 7.43448L11.3697 7.08585C11.3139 7.11724 11.2671 7.16314 11.2349 7.21937L11.582 7.41811ZM7.0594 4.4699C7.10034 4.48002 7.14954 4.49236 7.19549 4.49947C7.23956 4.50629 7.30346 4.51243 7.36938 4.49481C7.44657 4.47418 7.51334 4.42451 7.55402 4.34677C7.58925 4.27944 7.59774 4.20465 7.59774 4.13817H7.19774C7.19774 4.15554 7.19649 4.16543 7.19569 4.16977C7.19489 4.17413 7.19507 4.16998 7.19961 4.16132C7.2046 4.15178 7.21363 4.13919 7.228 4.12788C7.24223 4.11669 7.25626 4.11101 7.2661 4.10838C7.27508 4.10598 7.27966 4.10633 7.27704 4.10632C7.27448 4.1063 7.26817 4.10596 7.25669 4.10418C7.23191 4.10034 7.20138 4.09296 7.15543 4.0816L7.0594 4.4699ZM6.80759 4.42866C6.88915 4.42866 6.96895 4.44752 7.0594 4.4699L7.15543 4.0816C7.07015 4.0605 6.94494 4.02866 6.80759 4.02866V4.42866ZM6.01744 3.82292C6.01744 4.04943 6.11938 4.21795 6.28984 4.31696C6.44262 4.40569 6.63306 4.42866 6.80759 4.42866V4.02866C6.65618 4.02866 6.55155 4.00639 6.49074 3.97107C6.4476 3.94601 6.41744 3.91167 6.41744 3.82292H6.01744ZM6.47365 3.3484C6.4005 3.36604 6.2811 3.39164 6.1883 3.45817C6.07136 3.542 6.01744 3.66855 6.01744 3.82292H6.41744C6.41744 3.79196 6.42241 3.78125 6.42246 3.78115C6.42247 3.78114 6.42195 3.78216 6.42092 3.78337C6.41997 3.78449 6.41975 3.78441 6.42136 3.78326C6.4256 3.78022 6.43704 3.7736 6.46365 3.76482C6.49081 3.75586 6.52272 3.74803 6.5674 3.73726L6.47365 3.3484ZM6.71195 3.26839C6.64076 3.30715 6.56539 3.32628 6.47365 3.3484L6.5674 3.73726C6.65454 3.71625 6.77939 3.68711 6.90322 3.61969L6.71195 3.26839ZM7.59774 4.13817C7.59774 3.92769 7.49769 3.6763 7.36502 3.49801C7.29761 3.40742 7.20961 3.31891 7.10278 3.26631C6.98917 3.21038 6.84839 3.1941 6.71195 3.26839L6.90323 3.61969C6.90552 3.61844 6.90645 3.61828 6.9062 3.61834C6.90595 3.6184 6.90574 3.61839 6.906 3.61839C6.90651 3.61841 6.91287 3.61867 6.9261 3.62518C6.9554 3.6396 6.99795 3.67476 7.04411 3.7368C7.13858 3.86375 7.19774 4.03341 7.19774 4.13817H7.59774ZM8.72548 4.66941C8.72548 4.77737 8.75919 4.88266 8.84075 4.96142C8.91915 5.03714 9.01841 5.06565 9.1065 5.07181C9.27736 5.08375 9.46957 5.01782 9.63174 4.92303L9.42989 4.5777C9.30486 4.65078 9.19441 4.67698 9.1344 4.67278C9.10705 4.67087 9.10884 4.66425 9.11861 4.67369C9.13155 4.68618 9.12548 4.69406 9.12548 4.66941H8.72548ZM9.599 3.72029C9.44894 3.66587 9.30929 3.71409 9.20878 3.78017C9.10932 3.84555 9.02505 3.94166 8.95871 4.03834C8.8911 4.13686 8.83435 4.24735 8.794 4.3531C8.75489 4.45564 8.72548 4.56861 8.72548 4.66941H9.12548C9.12548 4.6376 9.1369 4.5765 9.16774 4.49567C9.19734 4.41806 9.23965 4.33589 9.28853 4.26466C9.33868 4.19157 9.38833 4.14082 9.4285 4.11441C9.46762 4.08869 9.47332 4.1002 9.46263 4.09633L9.599 3.72029ZM10.3361 4.56779C10.3361 4.36009 10.2173 4.17404 10.0863 4.03898C9.95124 3.89969 9.77443 3.78391 9.599 3.72029L9.46264 4.09633C9.57853 4.13835 9.70438 4.2197 9.79915 4.31743C9.89802 4.4194 9.93615 4.51026 9.93615 4.56779H10.3361ZM10.2055 4.84241C10.288 4.80762 10.3155 4.73644 10.3232 4.71218C10.3318 4.68521 10.3338 4.66067 10.3346 4.65003C10.3363 4.62662 10.3361 4.59551 10.3361 4.56779H9.93615C9.93615 4.58407 9.93614 4.59614 9.93603 4.6059C9.93598 4.61064 9.9359 4.61422 9.93581 4.61692C9.93577 4.61825 9.93573 4.61923 9.9357 4.61993C9.93566 4.62063 9.93564 4.62092 9.93564 4.62087C9.93565 4.62083 9.93569 4.62027 9.93579 4.61929C9.93589 4.61832 9.93609 4.61667 9.93642 4.61448C9.937 4.61074 9.93849 4.60202 9.94209 4.5907C9.94749 4.57377 9.97179 4.50681 10.0502 4.47378L10.2055 4.84241ZM9.63174 4.92303C9.84118 4.80062 9.93789 4.80198 9.96526 4.80568C9.97817 4.80743 9.98478 4.8107 9.99071 4.81401C9.99295 4.81526 9.99529 4.81665 9.99923 4.81902C10.0017 4.82054 10.0095 4.82528 10.017 4.82937C10.0231 4.83279 10.0413 4.84277 10.0652 4.84981C10.0887 4.85675 10.1433 4.86858 10.2055 4.84241L10.0502 4.47378C10.109 4.449 10.1597 4.46066 10.1785 4.4662C10.1892 4.46937 10.1972 4.47282 10.2015 4.47479C10.206 4.47685 10.209 4.47851 10.21 4.47905C10.211 4.4796 10.2114 4.47988 10.2056 4.47634C10.2011 4.47365 10.194 4.46938 10.1856 4.46471C10.1491 4.44431 10.0944 4.41951 10.0189 4.40929C9.86943 4.38908 9.68084 4.43102 9.42989 4.57769L9.63174 4.92303Z" fill="currentColor"/>
</svg>
