<svg  viewBox="0 0 15 16" fill="none" xmlns="http://www.w3.org/2000/svg">
<path fill-rule="evenodd" clip-rule="evenodd" d="M8.14 0.000104761C4.52117 0.000104761 1.59234 2.92893 1.59234 6.54776C1.59234 6.71424 1.59234 6.88071 1.61652 7.02395C1.3068 7.595 0.854802 8.38091 0.306989 8.8571C-0.0975854 9.21425 -0.00272765 9.59558 0.0447012 9.73787C0.16375 10.0476 0.496704 10.3089 1.04452 10.4996C1.20474 10.5598 1.38139 10.6029 1.54686 10.6433L1.63976 10.6661L1.66394 12.9754C1.66394 13.8804 2.42566 14.6663 3.35481 14.6663L4.7592 14.2143L4.90243 15.0476C4.9973 15.5954 5.47348 16 6.04549 16C6.1171 16 6.18871 16 6.2594 15.9758L10.6642 15.1908C11.3069 15.0718 11.7114 14.4766 11.6166 13.8339L11.3069 12.2863C13.3781 11.1432 14.6876 8.92862 14.6876 6.54765C14.6876 2.95287 11.7357 0 8.13994 0L8.14 0.000104761ZM2.34733 7.19767V6.58286H3.93878V7.19767H2.34733ZM2.91093 9.36408L3.20874 9.89561L4.58592 9.07541L4.28812 8.54388L2.91093 9.36408ZM4.28916 5.23539L2.91197 4.41658L3.20978 3.88504L4.58697 4.70386L4.28916 5.23539ZM12.4241 4.41658L12.1263 3.88504L10.7491 4.70386L11.0469 5.23539L12.4241 4.41658ZM7.36992 1.41061H7.96689V3.04962H7.36992V1.41061ZM6.06257 3.40912L5.26617 1.99077L4.75141 2.29748L5.54646 3.71582L6.06257 3.40912ZM8.91521 9.31692V10.8616H8.37216L8.37351 11.4583H6.96265L6.9613 10.8616H6.42094V9.31692C5.59088 8.84923 5.06262 7.94299 5.06262 6.96597C5.06262 5.48794 6.23228 4.28333 7.66742 4.28333C9.10526 4.28333 10.2749 5.48794 10.2749 6.96597C10.2736 7.9416 9.74397 8.84784 8.91525 9.31692H8.91521ZM9.27515 3.41033L9.79126 3.71703L10.5863 2.29869L10.0702 1.99198L9.27515 3.41033ZM12.1263 9.89565L10.7491 9.07546L11.0469 8.54392L12.4241 9.36412L12.1263 9.89565ZM11.3959 7.19776H12.9873V6.58295H11.3959V7.19776Z" fill="currentColor"/>
</svg>
